<svg width="101" height="101" viewBox="0 0 101 101" fill="none" xmlns="http://www.w3.org/2000/svg">
<path d="M50.8902 46.1328C50.8902 47.3958 50.7014 48.5156 50.3238 49.4922C49.9462 50.4688 49.4254 51.3281 48.7613 52.0703C48.1103 52.7995 47.342 53.418 46.4566 53.9258C45.5712 54.4206 44.6207 54.8307 43.605 55.1562C42.6024 55.4688 41.5608 55.7031 40.48 55.8594C39.3993 56.0026 38.3381 56.0807 37.2965 56.0938V64.4141H28.1949C28.1949 62.9297 28.1949 61.4844 28.1949 60.0781C28.2079 58.6719 28.2144 57.2786 28.2144 55.8984C28.2274 54.5052 28.234 53.1055 28.234 51.6992C28.247 50.293 28.26 48.8411 28.273 47.3438C28.2991 45.7552 28.3056 44.1667 28.2925 42.5781C28.2795 40.9896 28.3121 39.388 28.3902 37.7734C30.0569 37.2786 31.7235 36.9076 33.3902 36.6602C35.0569 36.4128 36.7756 36.2891 38.5465 36.2891C39.5491 36.2891 40.5517 36.3737 41.5543 36.543C42.5569 36.6992 43.5139 36.9531 44.4254 37.3047C45.3498 37.6562 46.2027 38.099 46.984 38.6328C47.7782 39.1536 48.4618 39.7786 49.0347 40.5078C49.6077 41.237 50.0569 42.0703 50.3824 43.0078C50.7209 43.9453 50.8902 44.987 50.8902 46.1328ZM42.2183 46.7969C42.2183 45.9505 41.9579 45.293 41.4371 44.8242C40.9293 44.3424 40.2652 44.1016 39.4449 44.1016C39.1715 44.1016 38.885 44.1276 38.5855 44.1797C38.2991 44.2188 38.0256 44.2708 37.7652 44.3359L37.5308 50.0391C37.7131 50.0651 37.8889 50.0781 38.0582 50.0781C38.2274 50.0781 38.4032 50.0781 38.5855 50.0781C39.0543 50.0781 39.5035 50 39.9332 49.8438C40.3759 49.6875 40.7665 49.4661 41.105 49.1797C41.4436 48.8802 41.7105 48.5352 41.9058 48.1445C42.1142 47.7409 42.2183 47.2917 42.2183 46.7969ZM72.023 54.1406C72.023 55.9245 71.7105 57.4674 71.0855 58.7695C70.4735 60.0586 69.6272 61.1263 68.5465 61.9727C67.4787 62.806 66.2222 63.4245 64.7769 63.8281C63.3446 64.2188 61.8017 64.4141 60.148 64.4141C59.51 64.4141 58.8069 64.3294 58.0386 64.1602C57.2834 63.9909 56.5152 63.7826 55.734 63.5352C54.9527 63.2747 54.1975 63.0013 53.4683 62.7148C52.7522 62.4154 52.1142 62.1354 51.5543 61.875L52.4136 54.2188C53.5204 54.8828 54.7444 55.3906 56.0855 55.7422C57.4397 56.0807 58.7678 56.25 60.0699 56.25C60.3173 56.25 60.6168 56.2435 60.9683 56.2305C61.3199 56.2044 61.6519 56.1458 61.9644 56.0547C62.2899 55.9505 62.5634 55.8008 62.7847 55.6055C63.0061 55.4102 63.1168 55.1302 63.1168 54.7656C63.1168 54.5182 63.0386 54.3099 62.8824 54.1406C62.7261 53.9583 62.5243 53.8151 62.2769 53.7109C62.0295 53.5938 61.7496 53.5091 61.4371 53.457C61.1246 53.3919 60.8186 53.3464 60.5191 53.3203C60.2196 53.2943 59.9397 53.2812 59.6793 53.2812C59.4189 53.2812 59.2105 53.2812 59.0543 53.2812C57.9345 53.2812 56.9123 53.1055 55.9879 52.7539C55.0764 52.4023 54.2886 51.9076 53.6246 51.2695C52.9735 50.6185 52.4657 49.8372 52.1011 48.9258C51.7366 48.0013 51.5543 46.9792 51.5543 45.8594C51.5543 44.3229 51.8603 42.9492 52.4722 41.7383C53.0972 40.5143 53.9241 39.4792 54.9527 38.6328C55.9944 37.7734 57.1858 37.1159 58.5269 36.6602C59.8681 36.2044 61.2548 35.9766 62.6871 35.9766C63.3251 35.9766 63.9827 36.0026 64.6597 36.0547C65.3368 36.0938 66.0074 36.1719 66.6715 36.2891C67.3485 36.4062 68.0061 36.556 68.6441 36.7383C69.2821 36.9206 69.8876 37.1484 70.4605 37.4219L69.7183 45.3516C68.8329 45.0521 67.9019 44.8047 66.9254 44.6094C65.9618 44.401 65.0178 44.2969 64.0933 44.2969C63.9241 44.2969 63.7027 44.3034 63.4293 44.3164C63.1689 44.3164 62.8889 44.3359 62.5894 44.375C62.303 44.401 62.01 44.4466 61.7105 44.5117C61.411 44.5768 61.1441 44.668 60.9097 44.7852C60.6754 44.8893 60.4866 45.0326 60.3433 45.2148C60.2001 45.3971 60.135 45.612 60.148 45.8594C60.161 46.1458 60.2652 46.3672 60.4605 46.5234C60.6689 46.6797 60.9293 46.7969 61.2418 46.875C61.5673 46.9401 61.9189 46.9727 62.2965 46.9727C62.6871 46.9727 63.0712 46.9661 63.4488 46.9531C63.8264 46.9271 64.178 46.9076 64.5035 46.8945C64.829 46.8685 65.0959 46.862 65.3043 46.875C66.3459 46.9401 67.2834 47.1615 68.1168 47.5391C68.9501 47.9167 69.6532 48.418 70.2261 49.043C70.8121 49.668 71.2548 50.4167 71.5543 51.2891C71.8668 52.1484 72.023 53.099 72.023 54.1406Z" fill="#8567FD"/>
<mask id="path-2-inside-1_478_21525" fill="white">
<path d="M19.459 83.5895C18.8454 83.0277 18.3454 82.3891 17.959 81.6738C17.5805 80.9657 17.3856 80.3099 17.3741 79.7064L18.3322 79.3471C18.3574 79.9198 18.5314 80.5274 18.8541 81.17C19.1841 81.8048 19.6126 82.3634 20.1397 82.8461C20.8792 83.5232 21.5563 83.8973 22.171 83.9683C22.7928 84.0315 23.3019 83.8468 23.698 83.4141C24.0006 83.0837 24.1396 82.7265 24.1151 82.3425C24.0985 81.9658 23.9915 81.593 23.7941 81.2242C23.6038 80.8475 23.3067 80.3586 22.9028 79.7573C22.4253 79.0309 22.0666 78.4276 21.8265 77.9474C21.5936 77.4594 21.4802 76.9435 21.4865 76.3996C21.5006 75.863 21.7417 75.3389 22.21 74.8276C22.5917 74.4106 23.0476 74.1339 23.5776 73.9973C24.1149 73.8528 24.7053 73.8872 25.3488 74.1004C25.9924 74.3137 26.6525 74.73 27.3291 75.3495C27.8011 75.7817 28.2001 76.27 28.5261 76.8143C28.8671 77.3579 29.0984 77.8951 29.2199 78.4258L28.2874 78.8519C28.1501 78.3068 27.9353 77.7991 27.6427 77.3288C27.3574 76.8507 27.026 76.4387 26.6484 76.0929C25.9246 75.4302 25.2482 75.0712 24.6191 75.0159C24.0051 74.9599 23.4964 75.1522 23.093 75.5927C22.7905 75.9232 22.6439 76.2807 22.6533 76.6653C22.6778 77.0493 22.7891 77.4332 22.9872 77.817C23.2003 78.2002 23.505 78.6889 23.9011 79.283C24.37 79.9871 24.7209 80.5832 24.9538 81.0712C25.2018 81.5585 25.3187 82.0706 25.3046 82.6072C25.2977 83.136 25.0637 83.6521 24.6027 84.1556C24.2209 84.5726 23.7575 84.8497 23.2124 84.987C22.6824 85.1236 22.0917 85.0816 21.4402 84.8612C20.796 84.6329 20.1356 84.209 19.459 83.5895ZM28.6491 90.0864C27.9357 89.7015 27.3787 89.195 26.9783 88.5669C26.5829 87.9293 26.3754 87.2356 26.3558 86.4857C26.3362 85.7358 26.5213 84.9994 26.9113 84.2766C27.3013 83.5538 27.8151 82.9946 28.4526 82.5993C29.0901 82.2039 29.7813 82.0011 30.5261 81.9909C31.2709 81.9806 32.0001 82.168 32.7135 82.5529C33.427 82.9378 33.9839 83.4443 34.3844 84.0724C34.7848 84.7006 34.9902 85.3871 35.0004 86.1319C35.02 86.8818 34.8348 87.6182 34.4449 88.341C34.0549 89.0639 33.5411 89.623 32.9036 90.0184C32.2755 90.4188 31.5865 90.6288 30.8366 90.6484C30.0917 90.6587 29.3626 90.4713 28.6491 90.0864ZM29.1277 89.1993C29.6534 89.4829 30.1861 89.6188 30.7258 89.607C31.2799 89.5908 31.7934 89.4254 32.2661 89.1108C32.7388 88.7962 33.1271 88.3573 33.431 87.794C33.7349 87.2308 33.8885 86.6652 33.8919 86.0974C33.8952 85.5296 33.749 85.0143 33.4531 84.5517C33.1718 84.0848 32.7682 83.7096 32.2425 83.4259C31.7168 83.1423 31.1769 83.0086 30.6228 83.0247C30.0831 83.0366 29.5722 83.1973 29.0901 83.5068C28.6174 83.8214 28.2291 84.2603 27.9252 84.8236C27.6213 85.3868 27.4677 85.9524 27.4643 86.5202C27.4704 87.0931 27.6141 87.613 27.8954 88.08C28.1913 88.5426 28.602 88.9157 29.1277 89.1993ZM38.1057 85.2642L39.1858 85.6158L36.5805 93.6184L35.5003 93.2667L38.1057 85.2642ZM39.223 83.6929C38.9998 83.6202 38.837 83.4831 38.7343 83.2814C38.6317 83.0797 38.6151 82.8724 38.6845 82.6594C38.7505 82.4565 38.8844 82.3038 39.086 82.2012C39.2877 82.0986 39.5001 82.0836 39.7232 82.1563C39.9464 82.2289 40.1093 82.3661 40.2119 82.5677C40.3178 82.7593 40.3377 82.9564 40.2717 83.1593C40.199 83.3824 40.0619 83.5453 39.8602 83.6479C39.6585 83.7505 39.4461 83.7655 39.223 83.6929ZM45.9968 86.6579C47.0445 86.79 47.8366 87.2017 48.373 87.8929C48.9213 88.5748 49.1221 89.4979 48.9753 90.662L48.3648 95.5037L47.2378 95.3616L47.8342 90.631C47.9437 89.7632 47.8101 89.0744 47.4336 88.5647C47.0571 88.0549 46.4667 87.7493 45.6624 87.6479C44.7628 87.5345 44.0144 87.7142 43.4172 88.1873C42.832 88.651 42.4799 89.3538 42.3612 90.2957L41.8088 94.677L40.6817 94.5349L41.7345 86.185L42.814 86.3211L42.6198 87.8609C42.9908 87.3916 43.4634 87.0535 44.0379 86.8464C44.6242 86.63 45.2772 86.5672 45.9968 86.6579ZM51.9235 87.221L53.0572 87.1495L53.5865 95.5489L52.4527 95.6203L51.9235 87.221ZM52.3826 85.3484C52.1484 85.3632 51.9464 85.2957 51.7767 85.1461C51.607 84.9965 51.515 84.8099 51.5009 84.5863C51.4875 84.3734 51.5556 84.1821 51.7053 84.0124C51.8549 83.8426 52.0468 83.7504 52.281 83.7356C52.5152 83.7208 52.7172 83.7883 52.8869 83.9379C53.056 84.0769 53.1472 84.2528 53.1606 84.4657C53.1754 84.6999 53.108 84.9019 52.9584 85.0717C52.8087 85.2414 52.6168 85.3336 52.3826 85.3484ZM59.7746 85.6085C60.7973 85.3453 61.6853 85.4362 62.4386 85.8812C63.1996 86.3132 63.7263 87.0973 64.0187 88.2336L65.2348 92.9597L64.1347 93.2428L62.9465 88.6252C62.7285 87.7781 62.3506 87.187 61.8127 86.8518C61.2749 86.5166 60.6134 86.45 59.8283 86.652C58.9503 86.878 58.3208 87.3208 57.9399 87.9806C57.5666 88.6273 57.4982 89.4104 57.7348 90.3298L58.8353 94.6064L57.7352 94.8895L55.6378 86.7391L56.6915 86.4679L57.0783 87.971C57.2503 87.398 57.5651 86.9095 58.0228 86.5053C58.4882 86.0882 59.0721 85.7892 59.7746 85.6085ZM72.0932 88.7112C72.5494 88.4561 72.9241 88.1427 73.2173 87.771C73.5146 87.3848 73.7098 86.9579 73.8028 86.4904L74.7206 86.8204C74.6134 87.3936 74.375 87.918 74.0054 88.3936C73.6358 88.8691 73.1577 89.2708 72.5712 89.5988C71.8171 90.0205 71.0583 90.237 70.2947 90.2485C69.526 90.2506 68.8199 90.0588 68.1765 89.6731C67.5331 89.2874 67.011 88.7361 66.6101 88.0192C66.2093 87.3024 66.0037 86.5741 65.9934 85.8344C65.9923 85.0894 66.178 84.4051 66.5503 83.7815C66.9226 83.1578 67.4578 82.6507 68.1561 82.2603C68.8078 81.8958 69.4776 81.7168 70.1656 81.7232C70.8628 81.7244 71.5134 81.9044 72.1174 82.2633C72.7307 82.617 73.2366 83.1284 73.6353 83.7977L68.2583 88.3441C68.7777 88.8359 69.3758 89.1186 70.0525 89.1924C70.7333 89.2516 71.4136 89.0912 72.0932 88.7112ZM68.6324 83.1121C68.1204 83.3985 67.7272 83.7772 67.4529 84.2483C67.1827 84.7049 67.051 85.2124 67.0577 85.7708C67.0685 86.3147 67.2275 86.8613 67.5347 87.4106C67.6128 87.5502 67.6747 87.65 67.7204 87.71L72.3392 83.8074C71.8839 83.2555 71.3188 82.9115 70.644 82.7756C69.964 82.6303 69.2934 82.7425 68.6324 83.1121ZM75.9336 76.3175C76.695 75.5858 77.5131 75.2287 78.3879 75.2461C79.2629 75.2485 80.1069 75.6727 80.9199 76.5187L84.3011 80.0375L83.482 80.8246L80.1784 77.3866C79.5723 76.7559 78.9528 76.4267 78.3196 76.399C77.6865 76.3713 77.0776 76.6383 76.4931 77.2C75.8393 77.8282 75.5086 78.5232 75.501 79.285C75.4937 80.0317 75.8189 80.7473 76.4766 81.4318L79.5364 84.616L78.7173 85.4031L72.886 79.3347L73.6705 78.5809L74.7459 79.6999C74.6142 79.1164 74.6484 78.5362 74.8485 77.9593C75.0489 77.3673 75.4106 76.8201 75.9336 76.3175Z"/>
</mask>
<path d="M19.459 83.5895C18.8454 83.0277 18.3454 82.3891 17.959 81.6738C17.5805 80.9657 17.3856 80.3099 17.3741 79.7064L18.3322 79.3471C18.3574 79.9198 18.5314 80.5274 18.8541 81.17C19.1841 81.8048 19.6126 82.3634 20.1397 82.8461C20.8792 83.5232 21.5563 83.8973 22.171 83.9683C22.7928 84.0315 23.3019 83.8468 23.698 83.4141C24.0006 83.0837 24.1396 82.7265 24.1151 82.3425C24.0985 81.9658 23.9915 81.593 23.7941 81.2242C23.6038 80.8475 23.3067 80.3586 22.9028 79.7573C22.4253 79.0309 22.0666 78.4276 21.8265 77.9474C21.5936 77.4594 21.4802 76.9435 21.4865 76.3996C21.5006 75.863 21.7417 75.3389 22.21 74.8276C22.5917 74.4106 23.0476 74.1339 23.5776 73.9973C24.1149 73.8528 24.7053 73.8872 25.3488 74.1004C25.9924 74.3137 26.6525 74.73 27.3291 75.3495C27.8011 75.7817 28.2001 76.27 28.5261 76.8143C28.8671 77.3579 29.0984 77.8951 29.2199 78.4258L28.2874 78.8519C28.1501 78.3068 27.9353 77.7991 27.6427 77.3288C27.3574 76.8507 27.026 76.4387 26.6484 76.0929C25.9246 75.4302 25.2482 75.0712 24.6191 75.0159C24.0051 74.9599 23.4964 75.1522 23.093 75.5927C22.7905 75.9232 22.6439 76.2807 22.6533 76.6653C22.6778 77.0493 22.7891 77.4332 22.9872 77.817C23.2003 78.2002 23.505 78.6889 23.9011 79.283C24.37 79.9871 24.7209 80.5832 24.9538 81.0712C25.2018 81.5585 25.3187 82.0706 25.3046 82.6072C25.2977 83.136 25.0637 83.6521 24.6027 84.1556C24.2209 84.5726 23.7575 84.8497 23.2124 84.987C22.6824 85.1236 22.0917 85.0816 21.4402 84.8612C20.796 84.6329 20.1356 84.209 19.459 83.5895ZM28.6491 90.0864C27.9357 89.7015 27.3787 89.195 26.9783 88.5669C26.5829 87.9293 26.3754 87.2356 26.3558 86.4857C26.3362 85.7358 26.5213 84.9994 26.9113 84.2766C27.3013 83.5538 27.8151 82.9946 28.4526 82.5993C29.0901 82.2039 29.7813 82.0011 30.5261 81.9909C31.2709 81.9806 32.0001 82.168 32.7135 82.5529C33.427 82.9378 33.9839 83.4443 34.3844 84.0724C34.7848 84.7006 34.9902 85.3871 35.0004 86.1319C35.02 86.8818 34.8348 87.6182 34.4449 88.341C34.0549 89.0639 33.5411 89.623 32.9036 90.0184C32.2755 90.4188 31.5865 90.6288 30.8366 90.6484C30.0917 90.6587 29.3626 90.4713 28.6491 90.0864ZM29.1277 89.1993C29.6534 89.4829 30.1861 89.6188 30.7258 89.607C31.2799 89.5908 31.7934 89.4254 32.2661 89.1108C32.7388 88.7962 33.1271 88.3573 33.431 87.794C33.7349 87.2308 33.8885 86.6652 33.8919 86.0974C33.8952 85.5296 33.749 85.0143 33.4531 84.5517C33.1718 84.0848 32.7682 83.7096 32.2425 83.4259C31.7168 83.1423 31.1769 83.0086 30.6228 83.0247C30.0831 83.0366 29.5722 83.1973 29.0901 83.5068C28.6174 83.8214 28.2291 84.2603 27.9252 84.8236C27.6213 85.3868 27.4677 85.9524 27.4643 86.5202C27.4704 87.0931 27.6141 87.613 27.8954 88.08C28.1913 88.5426 28.602 88.9157 29.1277 89.1993ZM38.1057 85.2642L39.1858 85.6158L36.5805 93.6184L35.5003 93.2667L38.1057 85.2642ZM39.223 83.6929C38.9998 83.6202 38.837 83.4831 38.7343 83.2814C38.6317 83.0797 38.6151 82.8724 38.6845 82.6594C38.7505 82.4565 38.8844 82.3038 39.086 82.2012C39.2877 82.0986 39.5001 82.0836 39.7232 82.1563C39.9464 82.2289 40.1093 82.3661 40.2119 82.5677C40.3178 82.7593 40.3377 82.9564 40.2717 83.1593C40.199 83.3824 40.0619 83.5453 39.8602 83.6479C39.6585 83.7505 39.4461 83.7655 39.223 83.6929ZM45.9968 86.6579C47.0445 86.79 47.8366 87.2017 48.373 87.8929C48.9213 88.5748 49.1221 89.4979 48.9753 90.662L48.3648 95.5037L47.2378 95.3616L47.8342 90.631C47.9437 89.7632 47.8101 89.0744 47.4336 88.5647C47.0571 88.0549 46.4667 87.7493 45.6624 87.6479C44.7628 87.5345 44.0144 87.7142 43.4172 88.1873C42.832 88.651 42.4799 89.3538 42.3612 90.2957L41.8088 94.677L40.6817 94.5349L41.7345 86.185L42.814 86.3211L42.6198 87.8609C42.9908 87.3916 43.4634 87.0535 44.0379 86.8464C44.6242 86.63 45.2772 86.5672 45.9968 86.6579ZM51.9235 87.221L53.0572 87.1495L53.5865 95.5489L52.4527 95.6203L51.9235 87.221ZM52.3826 85.3484C52.1484 85.3632 51.9464 85.2957 51.7767 85.1461C51.607 84.9965 51.515 84.8099 51.5009 84.5863C51.4875 84.3734 51.5556 84.1821 51.7053 84.0124C51.8549 83.8426 52.0468 83.7504 52.281 83.7356C52.5152 83.7208 52.7172 83.7883 52.8869 83.9379C53.056 84.0769 53.1472 84.2528 53.1606 84.4657C53.1754 84.6999 53.108 84.9019 52.9584 85.0717C52.8087 85.2414 52.6168 85.3336 52.3826 85.3484ZM59.7746 85.6085C60.7973 85.3453 61.6853 85.4362 62.4386 85.8812C63.1996 86.3132 63.7263 87.0973 64.0187 88.2336L65.2348 92.9597L64.1347 93.2428L62.9465 88.6252C62.7285 87.7781 62.3506 87.187 61.8127 86.8518C61.2749 86.5166 60.6134 86.45 59.8283 86.652C58.9503 86.878 58.3208 87.3208 57.9399 87.9806C57.5666 88.6273 57.4982 89.4104 57.7348 90.3298L58.8353 94.6064L57.7352 94.8895L55.6378 86.7391L56.6915 86.4679L57.0783 87.971C57.2503 87.398 57.5651 86.9095 58.0228 86.5053C58.4882 86.0882 59.0721 85.7892 59.7746 85.6085ZM72.0932 88.7112C72.5494 88.4561 72.9241 88.1427 73.2173 87.771C73.5146 87.3848 73.7098 86.9579 73.8028 86.4904L74.7206 86.8204C74.6134 87.3936 74.375 87.918 74.0054 88.3936C73.6358 88.8691 73.1577 89.2708 72.5712 89.5988C71.8171 90.0205 71.0583 90.237 70.2947 90.2485C69.526 90.2506 68.8199 90.0588 68.1765 89.6731C67.5331 89.2874 67.011 88.7361 66.6101 88.0192C66.2093 87.3024 66.0037 86.5741 65.9934 85.8344C65.9923 85.0894 66.178 84.4051 66.5503 83.7815C66.9226 83.1578 67.4578 82.6507 68.1561 82.2603C68.8078 81.8958 69.4776 81.7168 70.1656 81.7232C70.8628 81.7244 71.5134 81.9044 72.1174 82.2633C72.7307 82.617 73.2366 83.1284 73.6353 83.7977L68.2583 88.3441C68.7777 88.8359 69.3758 89.1186 70.0525 89.1924C70.7333 89.2516 71.4136 89.0912 72.0932 88.7112ZM68.6324 83.1121C68.1204 83.3985 67.7272 83.7772 67.4529 84.2483C67.1827 84.7049 67.051 85.2124 67.0577 85.7708C67.0685 86.3147 67.2275 86.8613 67.5347 87.4106C67.6128 87.5502 67.6747 87.65 67.7204 87.71L72.3392 83.8074C71.8839 83.2555 71.3188 82.9115 70.644 82.7756C69.964 82.6303 69.2934 82.7425 68.6324 83.1121ZM75.9336 76.3175C76.695 75.5858 77.5131 75.2287 78.3879 75.2461C79.2629 75.2485 80.1069 75.6727 80.9199 76.5187L84.3011 80.0375L83.482 80.8246L80.1784 77.3866C79.5723 76.7559 78.9528 76.4267 78.3196 76.399C77.6865 76.3713 77.0776 76.6383 76.4931 77.2C75.8393 77.8282 75.5086 78.5232 75.501 79.285C75.4937 80.0317 75.8189 80.7473 76.4766 81.4318L79.5364 84.616L78.7173 85.4031L72.886 79.3347L73.6705 78.5809L74.7459 79.6999C74.6142 79.1164 74.6484 78.5362 74.8485 77.9593C75.0489 77.3673 75.4106 76.8201 75.9336 76.3175Z" fill="#8567FD"/>
<path d="M19.459 83.5895L18.7837 84.327L19.459 83.5895ZM17.959 81.6738L17.0771 82.1452L17.0792 82.149L17.959 81.6738ZM17.3741 79.7064L17.0229 78.7701L16.3608 79.0184L16.3743 79.7254L17.3741 79.7064ZM18.3322 79.3471L19.3312 79.3031L19.2706 77.9272L17.981 78.4108L18.3322 79.3471ZM18.8541 81.17L17.9604 81.6189L17.9669 81.6312L18.8541 81.17ZM22.171 83.9683L22.0561 84.9618L22.0699 84.9632L22.171 83.9683ZM23.698 83.4141L24.4356 84.0894L23.698 83.4141ZM24.1151 82.3425L23.1161 82.3865L23.1165 82.3963L23.1172 82.4061L24.1151 82.3425ZM23.7941 81.2242L22.9015 81.675L22.9069 81.6857L22.9125 81.6962L23.7941 81.2242ZM22.9028 79.7573L22.0671 80.3066L22.0727 80.315L22.9028 79.7573ZM21.8265 77.9474L20.924 78.3781L20.9279 78.3864L20.932 78.3947L21.8265 77.9474ZM21.4865 76.3996L20.4868 76.3733L20.4866 76.3807L20.4865 76.3881L21.4865 76.3996ZM22.21 74.8276L21.4724 74.1523L22.21 74.8276ZM23.5776 73.9973L23.8272 74.9657L23.8373 74.963L23.5776 73.9973ZM25.3488 74.1004L25.0343 75.0497H25.0343L25.3488 74.1004ZM27.3291 75.3495L26.6538 76.087L27.3291 75.3495ZM28.5261 76.8143L27.6681 77.328L27.6734 77.3369L27.6789 77.3457L28.5261 76.8143ZM29.2199 78.4258L29.6355 79.3353L30.3765 78.9967L30.1947 78.2026L29.2199 78.4258ZM28.2874 78.8519L27.3177 79.0961L27.6109 80.2605L28.703 79.7614L28.2874 78.8519ZM27.6427 77.3288L26.784 77.8412L26.7887 77.8491L26.7936 77.857L27.6427 77.3288ZM26.6484 76.0929L27.3237 75.3554L26.6484 76.0929ZM24.6191 75.0159L24.5283 76.0118L24.5315 76.0121L24.6191 75.0159ZM22.6533 76.6653L21.6536 76.6897L21.6541 76.7093L21.6553 76.7289L22.6533 76.6653ZM22.9872 77.817L22.0985 78.2757L22.1057 78.2895L22.1133 78.3032L22.9872 77.817ZM23.9011 79.283L24.7334 78.7287L24.7331 78.7282L23.9011 79.283ZM24.9538 81.0712L24.0513 81.5019L24.0568 81.5133L24.0625 81.5247L24.9538 81.0712ZM25.3046 82.6072L24.3048 82.5809L24.3047 82.5942L25.3046 82.6072ZM23.2124 84.987L22.9682 84.0172L22.9629 84.0186L23.2124 84.987ZM21.4402 84.8612L21.1062 85.8037L21.1129 85.8061L21.1197 85.8084L21.4402 84.8612ZM19.459 83.5895L20.1343 82.852C19.6011 82.3637 19.1709 81.8133 18.8389 81.1985L17.959 81.6738L17.0792 82.149C17.5198 82.9649 18.0897 83.6916 18.7837 84.327L19.459 83.5895ZM17.959 81.6738L18.841 81.2024C18.5134 80.5895 18.3815 80.0895 18.3739 79.6874L17.3741 79.7064L16.3743 79.7254C16.3896 80.5303 16.6477 81.3418 17.0771 82.1452L17.959 81.6738ZM17.3741 79.7064L17.7252 80.6427L18.6833 80.2834L18.3322 79.3471L17.981 78.4108L17.0229 78.7701L17.3741 79.7064ZM18.3322 79.3471L17.3331 79.3911C17.3659 80.1357 17.5901 80.8813 17.9605 81.6188L18.8541 81.17L19.7478 80.7212C19.4727 80.1735 19.3489 79.7039 19.3312 79.3031L18.3322 79.3471ZM18.8541 81.17L17.9669 81.6312C18.3507 82.3697 18.851 83.0219 19.4644 83.5836L20.1397 82.8461L20.815 82.1085C20.3743 81.705 20.0175 81.2399 19.7414 80.7088L18.8541 81.17ZM20.1397 82.8461L19.4644 83.5836C20.2708 84.3219 21.1385 84.8556 22.0561 84.9617L22.171 83.9683L22.2858 82.9749C21.9741 82.9389 21.4876 82.7244 20.815 82.1085L20.1397 82.8461ZM22.171 83.9683L22.0699 84.9632C22.9821 85.0559 23.8103 84.7723 24.4356 84.0894L23.698 83.4141L22.9605 82.7388C22.7935 82.9212 22.6036 83.0071 22.2721 82.9734L22.171 83.9683ZM23.698 83.4141L24.4356 84.0894C24.889 83.5942 25.1577 82.9793 25.1131 82.2789L24.1151 82.3425L23.1172 82.4061C23.1215 82.4736 23.1122 82.5731 22.9605 82.7388L23.698 83.4141ZM24.1151 82.3425L25.1142 82.2985C25.0903 81.7564 24.936 81.2385 24.6757 80.7522L23.7941 81.2242L22.9125 81.6962C23.047 81.9475 23.1068 82.1751 23.1161 82.3865L24.1151 82.3425ZM23.7941 81.2242L24.6867 80.7734C24.4693 80.3429 24.146 79.8146 23.7328 79.1996L22.9028 79.7573L22.0727 80.315C22.4674 80.9025 22.7384 81.3522 22.9015 81.675L23.7941 81.2242ZM22.9028 79.7573L23.7384 79.208C23.2711 78.4971 22.9361 77.9305 22.7209 77.5002L21.8265 77.9474L20.932 78.3947C21.1971 78.9247 21.5795 79.5647 22.0671 80.3065L22.9028 79.7573ZM21.8265 77.9474L22.729 77.5168C22.5623 77.1676 22.4819 76.803 22.4864 76.4111L21.4865 76.3996L20.4865 76.3881C20.4786 77.084 20.6248 77.7513 20.924 78.3781L21.8265 77.9474ZM21.4865 76.3996L22.4861 76.4259C22.4922 76.1933 22.5935 75.8896 22.9475 75.5029L22.21 74.8276L21.4724 74.1523C20.89 74.7883 20.5089 75.5326 20.4868 76.3733L21.4865 76.3996ZM22.21 74.8276L22.9475 75.5029C23.203 75.2239 23.4912 75.0522 23.8272 74.9656L23.5776 73.9973L23.3281 73.0289C22.604 73.2155 21.9805 73.5974 21.4724 74.1523L22.21 74.8276ZM23.5776 73.9973L23.8373 74.963C24.1479 74.8794 24.5354 74.8844 25.0343 75.0497L25.3488 74.1004L25.6634 73.1512C24.8751 72.89 24.0818 72.8262 23.318 73.0316L23.5776 73.9973ZM25.3488 74.1004L25.0343 75.0497C25.5056 75.2058 26.0465 75.531 26.6538 76.087L27.3291 75.3495L28.0044 74.612C27.2585 73.929 26.4792 73.4215 25.6634 73.1512L25.3488 74.1004ZM27.3291 75.3495L26.6538 76.087C27.055 76.4545 27.3923 76.8675 27.6681 77.328L28.5261 76.8143L29.384 76.3005C29.0078 75.6724 28.5471 75.1089 28.0044 74.612L27.3291 75.3495ZM28.5261 76.8143L27.6789 77.3457C27.9709 77.811 28.1526 78.245 28.2451 78.649L29.2199 78.4258L30.1947 78.2026C30.0441 77.5452 29.7633 76.9048 29.3732 76.2829L28.5261 76.8143ZM29.2199 78.4258L28.8043 77.5163L27.8718 77.9424L28.2874 78.8519L28.703 79.7614L29.6355 79.3353L29.2199 78.4258ZM28.2874 78.8519L29.2571 78.6077C29.095 77.9638 28.8399 77.3601 28.4919 76.8007L27.6427 77.3288L26.7936 77.857C27.0306 78.2381 27.2053 78.6498 27.3177 79.0961L28.2874 78.8519ZM27.6427 77.3288L28.5015 76.8164C28.1707 76.262 27.779 75.7724 27.3237 75.3554L26.6484 76.0929L25.9731 76.8305C26.2729 77.105 26.5442 77.4394 26.784 77.8412L27.6427 77.3288ZM26.6484 76.0929L27.3237 75.3554C26.5221 74.6215 25.6465 74.1024 24.7067 74.0197L24.6191 75.0159L24.5315 76.0121C24.8498 76.0401 25.327 76.239 25.9731 76.8305L26.6484 76.0929ZM24.6191 75.0159L24.7099 74.02C23.7966 73.9367 22.9776 74.238 22.3555 74.9174L23.093 75.5927L23.8306 76.268C24.0152 76.0664 24.2136 75.9831 24.5283 76.0118L24.6191 75.0159ZM23.093 75.5927L22.3555 74.9174C21.9092 75.4048 21.6369 76.0045 21.6536 76.6897L22.6533 76.6653L23.653 76.6409C23.651 76.5569 23.6717 76.4415 23.8306 76.268L23.093 75.5927ZM22.6533 76.6653L21.6553 76.7289C21.6896 77.2666 21.8449 77.7842 22.0985 78.2757L22.9872 77.817L23.8758 77.3584C23.7332 77.0822 23.6659 76.8319 23.6513 76.6017L22.6533 76.6653ZM22.9872 77.817L22.1133 78.3032C22.345 78.7197 22.6661 79.2333 23.0691 79.8377L23.9011 79.283L24.7331 78.7282C24.3439 78.1445 24.0557 77.6808 23.861 77.3309L22.9872 77.817ZM23.9011 79.283L23.0688 79.8372C23.5243 80.5212 23.8469 81.0735 24.0513 81.5019L24.9538 81.0712L25.8563 80.6405C25.5949 80.0928 25.2157 79.4529 24.7334 78.7287L23.9011 79.283ZM24.9538 81.0712L24.0625 81.5247C24.2364 81.8665 24.3146 82.2139 24.3049 82.5809L25.3046 82.6072L26.3042 82.6335C26.3228 81.9272 26.1671 81.2506 25.8451 80.6177L24.9538 81.0712ZM25.3046 82.6072L24.3047 82.5942C24.3018 82.8129 24.2099 83.1038 23.8652 83.4803L24.6027 84.1556L25.3402 84.8309C25.9175 84.2005 26.2935 83.4591 26.3045 82.6203L25.3046 82.6072ZM24.6027 84.1556L23.8652 83.4803C23.6147 83.7539 23.3224 83.928 22.9682 84.0172L23.2124 84.987L23.4566 85.9567C24.1926 85.7714 24.8272 85.3913 25.3402 84.8309L24.6027 84.1556ZM23.2124 84.987L22.9629 84.0186C22.6639 84.0957 22.2753 84.0881 21.7608 83.914L21.4402 84.8612L21.1197 85.8084C21.908 86.0752 22.701 86.1515 23.462 85.9553L23.2124 84.987ZM21.4402 84.8612L21.7743 83.9186C21.2916 83.7476 20.744 83.4102 20.1343 82.852L19.459 83.5895L18.7837 84.327C19.5272 85.0078 20.3004 85.5182 21.1062 85.8037L21.4402 84.8612ZM26.9783 88.5669L26.1284 89.0939L26.1351 89.1044L26.9783 88.5669ZM26.3558 86.4857L25.3561 86.5119L26.3558 86.4857ZM28.4526 82.5993L27.9255 81.7494H27.9255L28.4526 82.5993ZM30.5261 81.9909L30.5124 80.991L30.5261 81.9909ZM32.7135 82.5529L32.2387 83.433L32.7135 82.5529ZM34.3844 84.0724L35.2276 83.5349L34.3844 84.0724ZM35.0004 86.1319L34.0004 86.1456L34.0007 86.158L35.0004 86.1319ZM34.4449 88.341L33.5648 87.8662L34.4449 88.341ZM32.9036 90.0183L32.3765 89.1685L32.366 89.1751L32.9036 90.0183ZM30.8366 90.6484L30.8503 91.6484L30.8627 91.6481L30.8366 90.6484ZM30.7258 89.607L30.7477 90.6067L30.755 90.6065L30.7258 89.607ZM32.2661 89.1108L32.8201 89.9433L32.2661 89.1108ZM33.8918 86.0974L34.8918 86.1033L33.8918 86.0974ZM33.4531 84.5518L32.5966 85.0679L32.6035 85.0793L32.6107 85.0905L33.4531 84.5518ZM30.6228 83.0247L30.6447 84.0245L30.6519 84.0243L30.6228 83.0247ZM29.0901 83.5068L28.5498 82.6653L28.5429 82.6698L28.5361 82.6743L29.0901 83.5068ZM27.4643 86.5202L26.4644 86.5143L26.4643 86.5225L26.4644 86.5308L27.4643 86.5202ZM27.8954 88.08L27.0389 88.5961L27.0458 88.6075L27.053 88.6187L27.8954 88.08ZM28.6491 90.0864L29.1239 89.2063C28.5469 88.895 28.1224 88.5012 27.8215 88.0293L26.9783 88.5669L26.1351 89.1044C26.6351 89.8887 27.3245 90.508 28.1743 90.9665L28.6491 90.0864ZM26.9783 88.5669L27.8281 88.0398C27.5262 87.553 27.3704 87.0322 27.3554 86.4596L26.3558 86.4857L25.3561 86.5119C25.3804 87.4391 25.6396 88.3057 26.1284 89.0939L26.9783 88.5669ZM26.3558 86.4857L27.3554 86.4596C27.3408 85.9005 27.4763 85.3356 27.7914 84.7514L26.9113 84.2766L26.0312 83.8018C25.5664 84.6633 25.3315 85.5711 25.3561 86.5119L26.3558 86.4857ZM26.9113 84.2766L27.7914 84.7514C28.1066 84.1673 28.5043 83.7439 28.9796 83.4491L28.4526 82.5993L27.9255 81.7494C27.1258 82.2454 26.496 82.9402 26.0312 83.8018L26.9113 84.2766ZM28.4526 82.5993L28.9796 83.4491C29.464 83.1487 29.9779 82.9985 30.5398 82.9908L30.5261 81.9909L30.5124 80.991C29.5846 81.0037 28.7162 81.2591 27.9255 81.7494L28.4526 82.5993ZM30.5261 81.9909L30.5398 82.9908C31.0995 82.9831 31.6617 83.1216 32.2387 83.433L32.7135 82.5529L33.1884 81.6728C32.3385 81.2143 31.4424 80.9782 30.5124 80.991L30.5261 81.9909ZM32.7135 82.5529L32.2387 83.433C32.8158 83.7443 33.2403 84.1381 33.5412 84.61L34.3844 84.0724L35.2276 83.5349C34.7276 82.7506 34.0382 82.1313 33.1884 81.6728L32.7135 82.5529ZM34.3844 84.0724L33.5412 84.61C33.8417 85.0815 33.9928 85.5866 34.0005 86.1456L35.0004 86.1319L36.0003 86.1182C35.9875 85.1875 35.7279 84.3197 35.2276 83.5349L34.3844 84.0724ZM35.0004 86.1319L34.0007 86.158C34.0154 86.7171 33.8799 87.2821 33.5648 87.8662L34.4449 88.341L35.3249 88.8158C35.7898 87.9543 36.0247 87.0465 36.0001 86.1057L35.0004 86.1319ZM34.4449 88.341L33.5648 87.8662C33.2496 88.4503 32.8518 88.8738 32.3766 89.1685L32.9036 90.0183L33.4307 90.8682C34.2304 90.3722 34.8601 89.6774 35.3249 88.8158L34.4449 88.341ZM32.9036 90.0183L32.366 89.1751C31.8922 89.4772 31.3802 89.6339 30.8104 89.6488L30.8366 90.6484L30.8627 91.6481C31.7928 91.6238 32.6588 91.3603 33.4412 90.8616L32.9036 90.0183ZM30.8366 90.6484L30.8228 89.6485C30.2632 89.6562 29.701 89.5177 29.1239 89.2063L28.6491 90.0864L28.1743 90.9665C29.0242 91.425 29.9203 91.6611 30.8503 91.6483L30.8366 90.6484ZM29.1277 89.1993L28.6529 90.0794C29.3144 90.4363 30.017 90.6228 30.7477 90.6067L30.7258 89.607L30.7039 88.6072C30.3553 88.6148 29.9925 88.5296 29.6026 88.3192L29.1277 89.1993ZM30.7258 89.607L30.755 90.6065C31.501 90.5848 32.1955 90.359 32.8201 89.9433L32.2661 89.1108L31.7121 88.2783C31.3912 88.4918 31.0589 88.5968 30.6966 88.6074L30.7258 89.607ZM32.2661 89.1108L32.8201 89.9433C33.4457 89.527 33.9395 88.9577 34.3111 88.2688L33.431 87.794L32.5509 87.3192C32.3148 87.7569 32.0319 88.0654 31.7121 88.2783L32.2661 89.1108ZM33.431 87.794L34.3111 88.2688C34.6827 87.58 34.8874 86.8548 34.8918 86.1033L33.8918 86.0974L32.8919 86.0915C32.8896 86.4757 32.787 86.8815 32.5509 87.3192L33.431 87.794ZM33.8918 86.0974L34.8918 86.1033C34.8963 85.3495 34.6991 84.6439 34.2956 84.013L33.4531 84.5518L32.6107 85.0905C32.7989 85.3848 32.8941 85.7096 32.8919 86.0915L33.8918 86.0974ZM33.4531 84.5518L34.3096 84.0356C33.9272 83.401 33.385 82.9061 32.7173 82.5458L32.2425 83.4259L31.7677 84.306C32.1514 84.513 32.4163 84.7687 32.5966 85.0679L33.4531 84.5518ZM32.2425 83.4259L32.7173 82.5458C32.0494 82.1855 31.3369 82.0035 30.5936 82.0252L30.6228 83.0247L30.6519 84.0243C31.017 84.0137 31.3842 84.0991 31.7677 84.306L32.2425 83.4259ZM30.6228 83.0247L30.6008 82.025C29.8657 82.0411 29.177 82.2627 28.5498 82.6653L29.0901 83.5068L29.6304 84.3483C29.9675 84.1319 30.3005 84.0321 30.6447 84.0245L30.6228 83.0247ZM29.0901 83.5068L28.5361 82.6743C27.9105 83.0906 27.4167 83.6599 27.0451 84.3488L27.9252 84.8236L28.8053 85.2984C29.0414 84.8607 29.3243 84.5522 29.6441 84.3393L29.0901 83.5068ZM27.9252 84.8236L27.0451 84.3488C26.6735 85.0376 26.4688 85.7629 26.4644 86.5143L27.4643 86.5202L28.4643 86.5261C28.4666 86.1419 28.5691 85.7361 28.8053 85.2984L27.9252 84.8236ZM27.4643 86.5202L26.4644 86.5308C26.4722 87.2725 26.6608 87.9685 27.0389 88.5961L27.8954 88.08L28.752 87.5638C28.5674 87.2575 28.4685 86.9137 28.4643 86.5097L27.4643 86.5202ZM27.8954 88.08L27.053 88.6187C27.4483 89.2369 27.9911 89.7223 28.6529 90.0794L29.1277 89.1993L29.6026 88.3192C29.2129 88.109 28.9343 87.8483 28.7379 87.5412L27.8954 88.08ZM38.1057 85.2642L38.4152 84.3133L37.4643 84.0037L37.1548 84.9546L38.1057 85.2642ZM39.1858 85.6158L40.1367 85.9254L40.4463 84.9745L39.4954 84.665L39.1858 85.6158ZM36.5805 93.6184L36.2709 94.5693L37.2218 94.8789L37.5314 93.928L36.5805 93.6184ZM35.5003 93.2667L34.5494 92.9572L34.2398 93.908L35.1907 94.2176L35.5003 93.2667ZM38.6845 82.6594L37.7336 82.3498L38.6845 82.6594ZM39.086 82.2012L38.6326 81.3099H38.6326L39.086 82.2012ZM40.2119 82.5677L39.3206 83.0212L39.3284 83.0366L39.3367 83.0516L40.2119 82.5677ZM40.2717 83.1593L39.3208 82.8497L40.2717 83.1593ZM38.1057 85.2642L37.7961 86.215L38.8763 86.5667L39.1858 85.6158L39.4954 84.665L38.4152 84.3133L38.1057 85.2642ZM39.1858 85.6158L38.235 85.3063L35.6296 93.3088L36.5805 93.6184L37.5314 93.928L40.1367 85.9254L39.1858 85.6158ZM36.5805 93.6184L36.8901 92.6675L35.8099 92.3159L35.5003 93.2667L35.1907 94.2176L36.2709 94.5693L36.5805 93.6184ZM35.5003 93.2667L36.4512 93.5763L39.0565 85.5737L38.1057 85.2642L37.1548 84.9546L34.5494 92.9572L35.5003 93.2667ZM39.223 83.6929L39.5325 82.742C39.5309 82.7415 39.5509 82.7481 39.5776 82.7706C39.6049 82.7936 39.6201 82.817 39.6256 82.8279L38.7344 83.2814L37.8431 83.7349C38.0708 84.1825 38.4485 84.4924 38.9134 84.6437L39.223 83.6929ZM38.7344 83.2814L39.6256 82.8279C39.6283 82.8332 39.6387 82.8571 39.6417 82.8947C39.6447 82.9325 39.6384 82.9597 39.6353 82.969L38.6845 82.6594L37.7336 82.3498C37.5812 82.8179 37.6216 83.2995 37.8431 83.7349L38.7344 83.2814ZM38.6845 82.6594L39.6353 82.969C39.6286 82.9897 39.6132 83.0212 39.5864 83.0518C39.5604 83.0815 39.5391 83.0927 39.5395 83.0925L39.086 82.2012L38.6326 81.3099C38.2104 81.5247 37.8871 81.8783 37.7336 82.3498L38.6845 82.6594ZM39.086 82.2012L39.5395 83.0925C39.5286 83.098 39.5025 83.108 39.4669 83.1105C39.4322 83.113 39.412 83.1066 39.4137 83.1071L39.7232 82.1562L40.0328 81.2054C39.5679 81.054 39.0802 81.0822 38.6326 81.3099L39.086 82.2012ZM39.7232 82.1562L39.4137 83.1071C39.4153 83.1077 39.3953 83.101 39.3686 83.0785C39.3413 83.0555 39.3261 83.0321 39.3206 83.0212L40.2119 82.5677L41.1031 82.1143C40.8754 81.6666 40.4977 81.3567 40.0328 81.2054L39.7232 82.1562ZM40.2119 82.5677L39.3367 83.0516C39.3311 83.0414 39.3163 83.0092 39.3113 82.9598C39.3063 82.9098 39.3141 82.8702 39.3208 82.8497L40.2717 83.1593L41.2225 83.4689C41.3769 82.9948 41.3231 82.5108 41.087 82.0838L40.2119 82.5677ZM40.2717 83.1593L39.3208 82.8497C39.3203 82.8514 39.3269 82.8313 39.3494 82.8047C39.3724 82.7774 39.3958 82.7622 39.4067 82.7567L39.8602 83.6479L40.3137 84.5392C40.7613 84.3114 41.0712 83.9338 41.2225 83.4689L40.2717 83.1593ZM39.8602 83.6479L39.4067 82.7567C39.4176 82.7511 39.4437 82.7411 39.4793 82.7386C39.5141 82.7361 39.5342 82.7425 39.5325 82.742L39.223 83.6929L38.9134 84.6437C39.3783 84.7951 39.866 84.767 40.3137 84.5392L39.8602 83.6479ZM48.373 87.8929L47.583 88.506L47.5883 88.5128L47.5937 88.5195L48.373 87.8929ZM48.9753 90.662L47.9832 90.5369L48.9753 90.662ZM48.3648 95.5037L48.2397 96.4958L49.2319 96.6209L49.357 95.6288L48.3648 95.5037ZM47.2378 95.3615L46.2456 95.2365L46.1205 96.2286L47.1127 96.3537L47.2378 95.3615ZM47.4336 88.5647L46.6292 89.1588L47.4336 88.5647ZM45.6624 87.6479L45.5373 88.64L45.6624 87.6479ZM43.4172 88.1873L42.7964 87.4034L42.7962 87.4035L43.4172 88.1873ZM41.8088 94.677L41.6837 95.6692L42.6758 95.7943L42.8009 94.8021L41.8088 94.677ZM40.6817 94.5349L39.6895 94.4098L39.5644 95.4019L40.5566 95.527L40.6817 94.5349ZM41.7345 86.185L41.8596 85.1929L40.8675 85.0678L40.7424 86.0599L41.7345 86.185ZM42.814 86.3211L43.8061 86.4462L43.9312 85.4541L42.9391 85.329L42.814 86.3211ZM42.6198 87.8609L41.6277 87.7358L41.1787 91.2966L43.4043 88.4811L42.6198 87.8609ZM44.0379 86.8464L44.377 87.7871L44.384 87.7845L44.0379 86.8464ZM45.9968 86.6579L45.8717 87.6501C46.7145 87.7563 47.2419 88.0665 47.583 88.506L48.373 87.8929L49.163 87.2798C48.4313 86.3369 47.3746 85.8237 46.1219 85.6658L45.9968 86.6579ZM48.373 87.8929L47.5937 88.5195C47.9202 88.9256 48.108 89.5468 47.9832 90.5369L48.9753 90.662L49.9675 90.7871C50.1362 89.449 49.9225 88.2241 49.1523 87.2663L48.373 87.8929ZM48.9753 90.662L47.9832 90.5369L47.3727 95.3786L48.3648 95.5037L49.357 95.6288L49.9675 90.7871L48.9753 90.662ZM48.3648 95.5037L48.4899 94.5115L47.3629 94.3694L47.2378 95.3615L47.1127 96.3537L48.2397 96.4958L48.3648 95.5037ZM47.2378 95.3615L48.2299 95.4866L48.8264 90.7561L47.8342 90.631L46.8421 90.5059L46.2456 95.2365L47.2378 95.3615ZM47.8342 90.631L48.8264 90.7561C48.9556 89.7315 48.8173 88.7549 48.238 87.9705L47.4336 88.5647L46.6292 89.1588C46.8029 89.394 46.9317 89.7949 46.8421 90.5059L47.8342 90.631ZM47.4336 88.5647L48.238 87.9705C47.6566 87.1834 46.7831 86.7813 45.7875 86.6557L45.6624 87.6479L45.5373 88.64C46.1502 88.7173 46.4575 88.9263 46.6292 89.1588L47.4336 88.5647ZM45.6624 87.6479L45.7875 86.6557C44.6759 86.5156 43.6437 86.7322 42.7964 87.4034L43.4172 88.1873L44.0381 88.9712C44.3852 88.6962 44.8497 88.5533 45.5373 88.64L45.6624 87.6479ZM43.4172 88.1873L42.7962 87.4035C41.9541 88.0707 41.5112 89.0428 41.369 90.1706L42.3612 90.2957L43.3533 90.4208C43.4487 89.6648 43.7098 89.2313 44.0383 88.971L43.4172 88.1873ZM42.3612 90.2957L41.369 90.1706L40.8166 94.5519L41.8088 94.677L42.8009 94.8021L43.3533 90.4208L42.3612 90.2957ZM41.8088 94.677L41.9338 93.6849L40.8068 93.5428L40.6817 94.5349L40.5566 95.527L41.6837 95.6692L41.8088 94.677ZM40.6817 94.5349L41.6738 94.66L42.7266 86.3101L41.7345 86.185L40.7424 86.0599L39.6895 94.4098L40.6817 94.5349ZM41.7345 86.185L41.6094 87.1772L42.6889 87.3133L42.814 86.3211L42.9391 85.329L41.8596 85.1929L41.7345 86.185ZM42.814 86.3211L41.8218 86.196L41.6277 87.7358L42.6198 87.8609L43.6119 87.986L43.8061 86.4462L42.814 86.3211ZM42.6198 87.8609L43.4043 88.4811C43.6571 88.1612 43.9742 87.9323 44.377 87.7871L44.0379 86.8464L43.6987 85.9056C42.9527 86.1746 42.3244 86.622 41.8353 87.2408L42.6198 87.8609ZM44.0379 86.8464L44.384 87.7845C44.7974 87.632 45.2856 87.5762 45.8717 87.6501L45.9968 86.6579L46.1219 85.6658C45.2688 85.5582 44.451 85.628 43.6917 85.9082L44.0379 86.8464ZM51.9235 87.221L51.8606 86.223L50.8626 86.2859L50.9254 87.2839L51.9235 87.221ZM53.0572 87.1495L54.0552 87.0867L53.9924 86.0886L52.9943 86.1515L53.0572 87.1495ZM53.5865 95.5489L53.6494 96.5469L54.6474 96.484L54.5845 95.486L53.5865 95.5489ZM52.4527 95.6203L51.4547 95.6832L51.5176 96.6812L52.5156 96.6183L52.4527 95.6203ZM52.3826 85.3484L52.3197 84.3504L52.3826 85.3484ZM51.7053 84.0124L50.9551 83.3511L51.7053 84.0124ZM52.281 83.7356L52.2181 82.7376L52.281 83.7356ZM52.8869 83.9379L52.2257 84.6881L52.2386 84.6995L52.2519 84.7104L52.8869 83.9379ZM53.1606 84.4657L52.1626 84.5286L53.1606 84.4657ZM51.9235 87.221L51.9864 88.219L53.1201 88.1476L53.0572 87.1495L52.9943 86.1515L51.8606 86.223L51.9235 87.221ZM53.0572 87.1495L52.0592 87.2124L52.5884 95.6118L53.5865 95.5489L54.5845 95.486L54.0552 87.0867L53.0572 87.1495ZM53.5865 95.5489L53.5236 94.5509L52.3898 94.6223L52.4527 95.6203L52.5156 96.6183L53.6494 96.5469L53.5865 95.5489ZM52.4527 95.6203L53.4507 95.5574L52.9215 87.1581L51.9235 87.221L50.9254 87.2839L51.4547 95.6832L52.4527 95.6203ZM52.3826 85.3484L52.3197 84.3504C52.318 84.3505 52.3391 84.3493 52.3722 84.3604C52.406 84.3717 52.4288 84.3879 52.4379 84.3959L51.7767 85.1461L51.1155 85.8963C51.4922 86.2284 51.9576 86.3772 52.4455 86.3464L52.3826 85.3484ZM51.7767 85.1461L52.4379 84.3959C52.4424 84.3999 52.4609 84.4182 52.4775 84.452C52.4943 84.4861 52.4984 84.5137 52.499 84.5235L51.5009 84.5863L50.5029 84.6492C50.5339 85.1405 50.749 85.5733 51.1155 85.8963L51.7767 85.1461ZM51.5009 84.5863L52.499 84.5235C52.5003 84.5452 52.4977 84.5802 52.4841 84.6185C52.4708 84.6556 52.4552 84.6739 52.4554 84.6736L51.7053 84.0124L50.9551 83.3511C50.6419 83.7064 50.4717 84.1543 50.5029 84.6492L51.5009 84.5863ZM51.7053 84.0124L52.4554 84.6736C52.4474 84.6828 52.4268 84.7017 52.3946 84.7171C52.3632 84.7322 52.3422 84.7337 52.3439 84.7336L52.281 83.7356L52.2181 82.7376C51.7302 82.7683 51.2872 82.9743 50.9551 83.3511L51.7053 84.0124ZM52.281 83.7356L52.3439 84.7336C52.3456 84.7335 52.3245 84.7347 52.2914 84.7236C52.2576 84.7123 52.2348 84.6962 52.2257 84.6881L52.8869 83.9379L53.5482 83.1877C53.1714 82.8556 52.706 82.7068 52.2181 82.7376L52.281 83.7356ZM52.8869 83.9379L52.2519 84.7104C52.2429 84.703 52.2173 84.6785 52.1944 84.6345C52.1713 84.5898 52.164 84.5501 52.1626 84.5286L53.1606 84.4657L54.1587 84.4028C54.1273 83.9053 53.8988 83.4752 53.5219 83.1654L52.8869 83.9379ZM53.1606 84.4657L52.1626 84.5286C52.1627 84.5303 52.1616 84.5093 52.1726 84.4762C52.1839 84.4424 52.2001 84.4196 52.2082 84.4104L52.9584 85.0717L53.7085 85.7329C54.0406 85.3561 54.1894 84.8908 54.1587 84.4028L53.1606 84.4657ZM52.9584 85.0717L52.2082 84.4104C52.2163 84.4012 52.2368 84.3823 52.269 84.3669C52.3004 84.3518 52.3214 84.3503 52.3197 84.3504L52.3826 85.3484L52.4455 86.3464C52.9334 86.3157 53.3764 86.1097 53.7085 85.7329L52.9584 85.0717ZM59.7746 85.6085L59.5254 84.64L59.7746 85.6085ZM62.4386 85.8812L61.93 86.7422L61.9375 86.7466L61.9449 86.7508L62.4386 85.8812ZM65.2348 92.9597L65.484 93.9281L66.4525 93.6789L66.2033 92.7105L65.2348 92.9597ZM64.1347 93.2428L63.1662 93.492L63.4154 94.4604L64.3839 94.2112L64.1347 93.2428ZM62.9465 88.6252L61.978 88.8744L62.9465 88.6252ZM61.8127 86.8518L61.2838 87.7005L61.8127 86.8518ZM59.8284 86.652L60.0776 87.6205L59.8284 86.652ZM57.9398 87.9806L57.0738 87.4805L57.0737 87.4807L57.9398 87.9806ZM58.8353 94.6064L59.0845 95.5749L60.053 95.3257L59.8038 94.3572L58.8353 94.6064ZM57.7352 94.8895L56.7667 95.1387L57.0159 96.1072L57.9844 95.858L57.7352 94.8895ZM55.6378 86.7391L55.3886 85.7706L54.4202 86.0198L54.6694 86.9883L55.6378 86.7391ZM56.6915 86.4679L57.66 86.2187L57.4108 85.2503L56.4423 85.4995L56.6915 86.4679ZM57.0783 87.971L56.1098 88.2202L57.0042 91.6959L58.0361 88.2585L57.0783 87.971ZM58.0228 86.5053L58.6847 87.255L58.6903 87.25L58.0228 86.5053ZM59.7746 85.6085L60.0238 86.5769C60.8464 86.3652 61.451 86.4593 61.93 86.7422L62.4386 85.8812L62.9472 85.0202C61.9195 84.4132 60.7481 84.3254 59.5254 84.64L59.7746 85.6085ZM62.4386 85.8812L61.9449 86.7508C62.3981 87.0081 62.8016 87.5164 63.0503 88.4828L64.0187 88.2336L64.9872 87.9844C64.6511 86.6783 64.0012 85.6183 62.9323 85.0115L62.4386 85.8812ZM64.0187 88.2336L63.0503 88.4828L64.2664 93.2089L65.2348 92.9597L66.2033 92.7105L64.9872 87.9844L64.0187 88.2336ZM65.2348 92.9597L64.9856 91.9912L63.8855 92.2743L64.1347 93.2428L64.3839 94.2112L65.484 93.9281L65.2348 92.9597ZM64.1347 93.2428L65.1031 92.9936L63.9149 88.376L62.9465 88.6252L61.978 88.8744L63.1662 93.492L64.1347 93.2428ZM62.9465 88.6252L63.9149 88.376C63.6576 87.3759 63.1692 86.5189 62.3417 86.0031L61.8127 86.8518L61.2838 87.7005C61.532 87.8551 61.7994 88.1804 61.978 88.8744L62.9465 88.6252ZM61.8127 86.8518L62.3417 86.0031C61.5112 85.4855 60.551 85.4335 59.5791 85.6836L59.8284 86.652L60.0776 87.6205C60.6759 87.4665 61.0386 87.5476 61.2838 87.7005L61.8127 86.8518ZM59.8284 86.652L59.5791 85.6836C58.4942 85.9628 57.6143 86.5445 57.0738 87.4805L57.9398 87.9806L58.8059 88.4806C59.0273 88.0971 59.4064 87.7932 60.0776 87.6205L59.8284 86.652ZM57.9398 87.9806L57.0737 87.4807C56.5367 88.4113 56.4831 89.4781 56.7664 90.579L57.7348 90.3298L58.7033 90.0806C58.5134 89.3426 58.5965 88.8434 58.806 88.4804L57.9398 87.9806ZM57.7348 90.3298L56.7664 90.579L57.8669 94.8557L58.8353 94.6064L59.8038 94.3572L58.7033 90.0806L57.7348 90.3298ZM58.8353 94.6064L58.5861 93.638L57.486 93.9211L57.7352 94.8895L57.9844 95.858L59.0845 95.5749L58.8353 94.6064ZM57.7352 94.8895L58.7036 94.6403L56.6063 86.4899L55.6378 86.7391L54.6694 86.9883L56.7667 95.1387L57.7352 94.8895ZM55.6378 86.7391L55.887 87.7075L56.9407 87.4364L56.6915 86.4679L56.4423 85.4995L55.3886 85.7706L55.6378 86.7391ZM56.6915 86.4679L55.7231 86.7171L56.1098 88.2202L57.0783 87.971L58.0467 87.7218L57.66 86.2187L56.6915 86.4679ZM57.0783 87.971L58.0361 88.2585C58.1533 87.868 58.3637 87.5384 58.6847 87.2549L58.0228 86.5053L57.361 85.7557C56.7665 86.2806 56.3473 86.928 56.1205 87.6835L57.0783 87.971ZM58.0228 86.5053L58.6903 87.25C59.0184 86.9559 59.4517 86.7242 60.0238 86.5769L59.7746 85.6085L59.5254 84.64C58.6926 84.8543 57.9581 85.2205 57.3554 85.7607L58.0228 86.5053ZM73.2173 87.771L74.0025 88.3904L74.0097 88.381L73.2173 87.771ZM73.8028 86.4904L74.1412 85.5494L73.0485 85.1565L72.822 86.2953L73.8028 86.4904ZM74.7206 86.8204L75.7035 87.0042L75.86 86.1675L75.059 85.8794L74.7206 86.8204ZM74.0054 88.3936L74.795 89.0072L74.0054 88.3936ZM72.5712 89.5988L72.0832 88.726L72.5712 89.5988ZM70.2947 90.2485L70.2975 91.2485L70.3097 91.2484L70.2947 90.2485ZM68.1765 89.6731L67.6624 90.5308L68.1765 89.6731ZM65.9934 85.8344L64.9933 85.8357L64.9935 85.8483L65.9934 85.8344ZM66.5503 83.7815L65.6916 83.2689L66.5503 83.7815ZM68.1561 82.2603L67.668 81.3874L68.1561 82.2603ZM70.1656 81.7232L70.1563 82.7232L70.1639 82.7232L70.1656 81.7232ZM72.1174 82.2633L71.6065 83.1231L71.6178 83.1296L72.1174 82.2633ZM73.6353 83.7977L74.281 84.5613L74.9282 84.014L74.4944 83.2859L73.6353 83.7977ZM68.2583 88.3441L67.6127 87.5805L66.7593 88.302L67.5708 89.0703L68.2583 88.3441ZM70.0525 89.1924L69.9441 90.1865L69.955 90.1877L69.9658 90.1886L70.0525 89.1924ZM68.6324 83.1121L68.1444 82.2393L68.6324 83.1121ZM67.4529 84.2483L68.3135 84.7576L68.3171 84.7514L67.4529 84.2483ZM67.0577 85.7708L66.0578 85.7828L66.0579 85.7907L67.0577 85.7708ZM67.5347 87.4106L66.6619 87.8986L67.5347 87.4106ZM67.7204 87.71L66.9254 88.3166L67.563 89.1522L68.3658 88.4739L67.7204 87.71ZM72.3392 83.8074L72.9846 84.5713L73.7395 83.9335L73.1106 83.1711L72.3392 83.8074ZM70.644 82.7756L70.4351 83.7536L70.4465 83.7559L70.644 82.7756ZM72.0932 88.7112L72.5813 89.584C73.1402 89.2715 73.6198 88.8755 74.0025 88.3903L73.2173 87.771L72.4322 87.1517C72.2285 87.4099 71.9586 87.6408 71.6052 87.8384L72.0932 88.7112ZM73.2173 87.771L74.0097 88.381C74.3987 87.8756 74.6599 87.3074 74.7836 86.6855L73.8028 86.4904L72.822 86.2953C72.7597 86.6084 72.6305 86.8939 72.4249 87.161L73.2173 87.771ZM73.8028 86.4904L73.4644 87.4314L74.3822 87.7614L74.7206 86.8204L75.059 85.8794L74.1412 85.5494L73.8028 86.4904ZM74.7206 86.8204L73.7376 86.6366C73.6607 87.048 73.4909 87.4259 73.2158 87.7799L74.0054 88.3936L74.795 89.0072C75.259 88.4101 75.5661 87.7393 75.7035 87.0042L74.7206 86.8204ZM74.0054 88.3936L73.2158 87.7799C72.9374 88.1381 72.5664 88.4558 72.0832 88.726L72.5712 89.5988L73.0593 90.4716C73.7491 90.0859 74.3342 89.6 74.795 89.0072L74.0054 88.3936ZM72.5712 89.5988L72.0832 88.726C71.4545 89.0775 70.8568 89.2399 70.2798 89.2486L70.2947 90.2485L70.3097 91.2484C71.2598 91.2341 72.1797 90.9634 73.0593 90.4716L72.5712 89.5988ZM70.2947 90.2485L70.292 89.2485C69.7006 89.2501 69.1739 89.1051 68.6907 88.8154L68.1765 89.6731L67.6624 90.5308C68.4659 91.0125 69.3515 91.2511 70.2975 91.2485L70.2947 90.2485ZM68.1765 89.6731L68.6907 88.8154C68.211 88.5278 67.8069 88.1105 67.4829 87.5312L66.6101 88.0192L65.7373 88.5073C66.2151 89.3617 66.8552 90.0469 67.6624 90.5308L68.1765 89.6731ZM66.6101 88.0192L67.4829 87.5312C67.1541 86.943 67.001 86.3763 66.9933 85.8204L65.9934 85.8344L64.9935 85.8483C65.0063 86.7719 65.2645 87.6617 65.7373 88.5073L66.6101 88.0192ZM65.9934 85.8344L66.9934 85.833C66.9926 85.2642 67.1318 84.7582 67.4089 84.294L66.5503 83.7815L65.6916 83.2689C65.2241 84.0521 64.9921 84.9147 64.9934 85.8357L65.9934 85.8344ZM66.5503 83.7815L67.4089 84.294C67.6825 83.8357 68.0829 83.4469 68.6441 83.1331L68.1561 82.2603L67.668 81.3874C66.8327 81.8545 66.1626 82.4798 65.6916 83.2689L66.5503 83.7815ZM68.1561 82.2603L68.6441 83.1331C69.1573 82.8461 69.657 82.7185 70.1563 82.7232L70.1656 81.7232L70.1748 80.7233C69.2982 80.7151 68.4583 80.9456 67.668 81.3874L68.1561 82.2603ZM70.1656 81.7232L70.1639 82.7232C70.6805 82.7241 71.1554 82.8549 71.6066 83.123L72.1174 82.2633L72.6282 81.4036C71.8714 80.9539 71.0452 80.7247 70.1673 80.7232L70.1656 81.7232ZM72.1174 82.2633L71.6178 83.1296C72.0684 83.3894 72.4561 83.7721 72.7762 84.3094L73.6353 83.7977L74.4944 83.2859C74.0172 82.4848 73.393 81.8446 72.617 81.397L72.1174 82.2633ZM73.6353 83.7977L72.9896 83.034L67.6127 87.5805L68.2583 88.3441L68.904 89.1077L74.281 84.5613L73.6353 83.7977ZM68.2583 88.3441L67.5708 89.0703C68.2402 89.7041 69.0388 90.0878 69.9441 90.1865L70.0525 89.1924L70.1609 88.1983C69.7127 88.1494 69.3152 87.9677 68.9458 87.618L68.2583 88.3441ZM70.0525 89.1924L69.9658 90.1886C70.8732 90.2676 71.7519 90.0478 72.5813 89.584L72.0932 88.7112L71.6052 87.8384C71.0752 88.1347 70.5935 88.2357 70.1392 88.1961L70.0525 89.1924ZM68.6324 83.1121L68.1444 82.2393C67.4884 82.6061 66.9599 83.1076 66.5887 83.7451L67.4529 84.2483L68.3171 84.7514C68.4945 84.4467 68.7523 84.1908 69.1205 83.9849L68.6324 83.1121ZM67.4529 84.2483L66.5923 83.739C66.2238 84.3618 66.049 85.0513 66.0578 85.7828L67.0577 85.7708L68.0576 85.7588C68.053 85.3736 68.1417 85.048 68.3135 84.7575L67.4529 84.2483ZM67.0577 85.7708L66.0579 85.7907C66.0725 86.5228 66.2872 87.2287 66.6619 87.8986L67.5347 87.4106L68.4075 86.9225C68.1678 86.4939 68.0646 86.1066 68.0575 85.7509L67.0577 85.7708ZM67.5347 87.4106L66.6619 87.8986C66.7434 88.0445 66.834 88.1968 66.9254 88.3166L67.7204 87.71L68.5154 87.1034C68.5197 87.109 68.5116 87.0988 68.4894 87.063C68.4687 87.0296 68.4416 86.9835 68.4075 86.9225L67.5347 87.4106ZM67.7204 87.71L68.3658 88.4739L72.9846 84.5713L72.3392 83.8074L71.6938 83.0436L67.075 86.9462L67.7204 87.71ZM72.3392 83.8074L73.1106 83.1711C72.5154 82.4495 71.7509 81.9784 70.8415 81.7952L70.644 82.7756L70.4465 83.7559C70.8868 83.8446 71.2524 84.0614 71.5678 84.4438L72.3392 83.8074ZM70.644 82.7756L70.8529 81.7976C69.9136 81.597 68.9968 81.7626 68.1444 82.2393L68.6324 83.1121L69.1205 83.9849C69.59 83.7224 70.0143 83.6636 70.4351 83.7535L70.644 82.7756ZM75.9336 76.3175L75.2407 75.5965L75.9336 76.3175ZM78.3879 75.2461L78.3679 76.2459L78.3765 76.2461L78.3852 76.2461L78.3879 75.2461ZM84.3011 80.0375L84.994 80.7586L85.7151 80.0657L85.0222 79.3446L84.3011 80.0375ZM83.482 80.8246L82.761 81.5175L83.4538 82.2385L84.1749 81.5457L83.482 80.8246ZM80.1784 77.3866L79.4573 78.0795L80.1784 77.3866ZM78.3196 76.399L78.2759 77.3981H78.2759L78.3196 76.399ZM76.4931 77.2L77.186 77.9211L76.4931 77.2ZM75.501 79.285L74.5011 79.275V79.2752L75.501 79.285ZM76.4766 81.4318L75.7556 82.1247L76.4766 81.4318ZM79.5364 84.616L80.2293 85.3371L80.9503 84.6442L80.2574 83.9231L79.5364 84.616ZM78.7173 85.4031L77.9962 86.096L78.6891 86.8171L79.4101 86.1242L78.7173 85.4031ZM72.886 79.3347L72.1931 78.6136L71.4721 79.3065L72.165 80.0276L72.886 79.3347ZM73.6705 78.5809L74.3916 77.888L73.6987 77.1669L72.9777 77.8598L73.6705 78.5809ZM74.7459 79.6999L74.0248 80.3928L76.5115 82.9807L75.7213 79.4798L74.7459 79.6999ZM74.8485 77.9593L75.7933 78.287L75.7957 78.28L74.8485 77.9593ZM75.9336 76.3175L76.6264 77.0386C77.2389 76.45 77.8117 76.2349 78.3679 76.2459L78.3879 75.2461L78.4078 74.2463C77.2145 74.2226 76.1511 74.7216 75.2407 75.5965L75.9336 76.3175ZM78.3879 75.2461L78.3852 76.2461C78.9062 76.2475 79.5074 76.492 80.1988 77.2116L80.9199 76.5187L81.641 75.8259C80.7065 74.8534 79.6196 74.2495 78.3905 74.2462L78.3879 75.2461ZM80.9199 76.5187L80.1988 77.2116L83.5801 80.7304L84.3011 80.0375L85.0222 79.3446L81.641 75.8259L80.9199 76.5187ZM84.3011 80.0375L83.6083 79.3164L82.7891 80.1035L83.482 80.8246L84.1749 81.5457L84.994 80.7586L84.3011 80.0375ZM83.482 80.8246L84.2031 80.1317L80.8994 76.6937L80.1784 77.3866L79.4573 78.0795L82.761 81.5175L83.482 80.8246ZM80.1784 77.3866L80.8994 76.6937C80.1839 75.9491 79.3375 75.4426 78.3633 75.4L78.3196 76.399L78.2759 77.3981C78.5681 77.4108 78.9608 77.5627 79.4573 78.0795L80.1784 77.3866ZM78.3196 76.399L78.3633 75.4C77.3857 75.3572 76.5238 75.7836 75.8002 76.4789L76.4931 77.2L77.186 77.9211C77.6315 77.493 77.9872 77.3854 78.2759 77.3981L78.3196 76.399ZM76.4931 77.2L75.8002 76.4789C74.9924 77.2552 74.5119 78.1941 74.5011 79.275L75.501 79.285L76.501 79.295C76.5054 78.8523 76.6863 78.4012 77.186 77.9211L76.4931 77.2ZM75.501 79.285L74.5011 79.2752C74.4905 80.3495 74.968 81.3051 75.7556 82.1247L76.4766 81.4318L77.1977 80.739C76.6698 80.1895 76.4968 79.7139 76.501 79.2948L75.501 79.285ZM76.4766 81.4318L75.7556 82.1247L78.8153 85.3089L79.5364 84.616L80.2574 83.9231L77.1977 80.739L76.4766 81.4318ZM79.5364 84.616L78.8435 83.895L78.0244 84.6821L78.7173 85.4031L79.4101 86.1242L80.2293 85.3371L79.5364 84.616ZM78.7173 85.4031L79.4383 84.7103L73.6071 78.6418L72.886 79.3347L72.165 80.0276L77.9962 86.096L78.7173 85.4031ZM72.886 79.3347L73.5789 80.0558L74.3634 79.3019L73.6705 78.5809L72.9777 77.8598L72.1931 78.6136L72.886 79.3347ZM73.6705 78.5809L72.9495 79.2737L74.0248 80.3928L74.7459 79.6999L75.4669 79.0071L74.3916 77.888L73.6705 78.5809ZM74.7459 79.6999L75.7213 79.4798C75.6316 79.0821 75.6529 78.6916 75.7933 78.287L74.8485 77.9593L73.9037 77.6316C73.6438 78.3809 73.5968 79.1507 73.7704 79.9201L74.7459 79.6999ZM74.8485 77.9593L75.7957 78.28C75.9369 77.8626 76.2005 77.4479 76.6264 77.0386L75.9336 76.3175L75.2407 75.5965C74.6207 76.1923 74.1608 76.8721 73.9013 77.6387L74.8485 77.9593Z" fill="#8567FD" mask="url(#path-2-inside-1_478_21525)"/>
<mask id="path-4-inside-2_478_21525" fill="white">
<path d="M32.297 8.60418C33.6056 8.02925 34.7683 7.89124 35.7851 8.19016C36.8019 8.48908 37.5506 9.18542 38.0311 10.2792C38.5117 11.3729 38.5181 12.3954 38.0505 13.3465C37.5787 14.2878 36.6884 15.0459 35.3798 15.6208L32.6259 16.8308L34.0482 20.0681L32.9642 20.5444L28.4591 10.2904L32.297 8.60418ZM34.9322 14.6816C35.9478 14.2353 36.6277 13.6745 36.9717 12.9991C37.3114 12.3139 37.3033 11.566 36.9471 10.7554C36.5824 9.92535 36.035 9.40857 35.3048 9.2051C34.5703 8.99186 33.6953 9.10834 32.6796 9.55456L29.955 10.7516L32.2076 15.8786L34.9322 14.6816ZM45.1611 15.4713C45.6779 15.393 46.1389 15.2315 46.5442 14.9867C46.9584 14.7298 47.2912 14.3989 47.5428 13.994L48.2858 14.6258C47.9837 15.1247 47.5761 15.5316 47.0628 15.8467C46.5495 16.1618 45.9607 16.3697 45.2963 16.4703C44.442 16.5997 43.6555 16.5354 42.9368 16.2775C42.2165 16.009 41.623 15.581 41.1564 14.9936C40.6899 14.4062 40.3951 13.7064 40.2721 12.8944C40.1491 12.0823 40.2129 11.3282 40.4635 10.6322C40.7246 9.93456 41.1392 9.35933 41.7071 8.90651C42.275 8.45368 42.9545 8.16737 43.7454 8.04757C44.4837 7.93575 45.1737 8.00386 45.8154 8.25189C46.4676 8.49832 47.0133 8.89575 47.4524 9.44419C47.902 9.99102 48.1957 10.6478 48.3334 11.4145L41.7006 13.7784C42.0138 14.4214 42.4741 14.8965 43.0816 15.2037C43.6981 15.4987 44.3913 15.5879 45.1611 15.4713ZM43.8916 9.01256C43.3116 9.10042 42.8103 9.31659 42.3878 9.66108C41.9742 9.99343 41.6723 10.4221 41.4822 10.9472C41.3009 11.4601 41.2574 12.0277 41.3517 12.6499C41.3756 12.8081 41.3985 12.9234 41.4202 12.9956L47.1168 10.9676C46.8848 10.2907 46.4768 9.76995 45.893 9.40527C45.3075 9.03005 44.6404 8.89915 43.8916 9.01256ZM54.3632 15.5144C54.1418 15.6971 53.8743 15.8351 53.5607 15.9284C53.2476 16.0111 52.9205 16.0452 52.5795 16.0306C51.7908 15.9968 51.1925 15.7577 50.7845 15.3131C50.3765 14.8686 50.1891 14.2574 50.2224 13.4794L50.5598 5.59864L51.6947 5.64722L51.616 7.48554L54.1577 7.59434L54.1166 8.55346L51.575 8.44466L51.3601 13.4641C51.3387 13.9649 51.4448 14.3538 51.6785 14.6307C51.9127 14.897 52.2642 15.0402 52.7331 15.0602C53.2446 15.0821 53.6664 14.9561 53.9984 14.682L54.3632 15.5144ZM57.8979 9.83637C58.2714 9.33519 58.7429 8.99531 59.3123 8.81674C59.8922 8.64029 60.5637 8.62931 61.3269 8.7838L61.1078 9.86586L60.8444 9.79621C59.9767 9.62054 59.2432 9.74957 58.6439 10.1833C58.0446 10.617 57.6476 11.3148 57.4529 12.2766L56.6021 16.4793L55.4887 16.2539L57.1585 8.00526L58.2249 8.22114L57.8979 9.83637ZM70.7496 12.8286L67.3667 20.5348L66.3704 20.0975L67.0393 18.5738C66.4995 18.9543 65.9108 19.1676 65.2731 19.2139C64.6451 19.2644 64.0088 19.1481 63.3642 18.8652C62.6415 18.5479 62.06 18.0946 61.6197 17.5052C61.1795 16.9159 60.9241 16.2505 60.8535 15.5089C60.783 14.7673 60.915 14.0156 61.2494 13.2538C61.5838 12.492 62.0478 11.8861 62.6415 11.4361C63.2351 10.986 63.8956 10.7285 64.6232 10.6635C65.355 10.5886 66.0822 10.7099 66.805 11.0271C67.4301 11.3015 67.9338 11.6799 68.3162 12.1623C68.7126 12.6392 68.9626 13.1975 69.0662 13.8371L69.7094 12.372L70.7496 12.8286ZM63.8573 17.9808C64.3945 18.2166 64.9315 18.3067 65.4685 18.2512C66.0195 18.1902 66.5178 17.9838 66.9635 17.6319C67.419 17.2843 67.7753 16.8176 68.0326 16.2315C68.2898 15.6455 68.3922 15.0672 68.3398 14.4967C68.2972 13.9305 68.1097 13.4288 67.7773 12.9917C67.4591 12.5491 67.0313 12.2099 66.4942 11.9741C65.9472 11.734 65.3982 11.6444 64.8472 11.7054C64.3103 11.7609 63.8141 11.9625 63.3586 12.3101C62.913 12.6619 62.5615 13.1309 62.3042 13.7169C62.047 14.3029 61.9397 14.879 61.9823 15.4453C62.0348 16.0158 62.2201 16.5223 62.5384 16.9649C62.8707 17.4021 63.3103 17.7407 63.8573 17.9808Z"/>
</mask>
<path d="M32.297 8.60418C33.6056 8.02925 34.7683 7.89124 35.7851 8.19016C36.8019 8.48908 37.5506 9.18542 38.0311 10.2792C38.5117 11.3729 38.5181 12.3954 38.0505 13.3465C37.5787 14.2878 36.6884 15.0459 35.3798 15.6208L32.6259 16.8308L34.0482 20.0681L32.9642 20.5444L28.4591 10.2904L32.297 8.60418ZM34.9322 14.6816C35.9478 14.2353 36.6277 13.6745 36.9717 12.9991C37.3114 12.3139 37.3033 11.566 36.9471 10.7554C36.5824 9.92535 36.035 9.40857 35.3048 9.2051C34.5703 8.99186 33.6953 9.10834 32.6796 9.55456L29.955 10.7516L32.2076 15.8786L34.9322 14.6816ZM45.1611 15.4713C45.6779 15.393 46.1389 15.2315 46.5442 14.9867C46.9584 14.7298 47.2912 14.3989 47.5428 13.994L48.2858 14.6258C47.9837 15.1247 47.5761 15.5316 47.0628 15.8467C46.5495 16.1618 45.9607 16.3697 45.2963 16.4703C44.442 16.5997 43.6555 16.5354 42.9368 16.2775C42.2165 16.009 41.623 15.581 41.1564 14.9936C40.6899 14.4062 40.3951 13.7064 40.2721 12.8944C40.1491 12.0823 40.2129 11.3282 40.4635 10.6322C40.7246 9.93456 41.1392 9.35933 41.7071 8.90651C42.275 8.45368 42.9545 8.16737 43.7454 8.04757C44.4837 7.93575 45.1737 8.00386 45.8154 8.25189C46.4676 8.49832 47.0133 8.89575 47.4524 9.44419C47.902 9.99102 48.1957 10.6478 48.3334 11.4145L41.7006 13.7784C42.0138 14.4214 42.4741 14.8965 43.0816 15.2037C43.6981 15.4987 44.3913 15.5879 45.1611 15.4713ZM43.8916 9.01256C43.3116 9.10042 42.8103 9.31659 42.3878 9.66108C41.9742 9.99343 41.6723 10.4221 41.4822 10.9472C41.3009 11.4601 41.2574 12.0277 41.3517 12.6499C41.3756 12.8081 41.3985 12.9234 41.4202 12.9956L47.1168 10.9676C46.8848 10.2907 46.4768 9.76995 45.893 9.40527C45.3075 9.03005 44.6404 8.89915 43.8916 9.01256ZM54.3632 15.5144C54.1418 15.6971 53.8743 15.8351 53.5607 15.9284C53.2476 16.0111 52.9205 16.0452 52.5795 16.0306C51.7908 15.9968 51.1925 15.7577 50.7845 15.3131C50.3765 14.8686 50.1891 14.2574 50.2224 13.4794L50.5598 5.59864L51.6947 5.64722L51.616 7.48554L54.1577 7.59434L54.1166 8.55346L51.575 8.44466L51.3601 13.4641C51.3387 13.9649 51.4448 14.3538 51.6785 14.6307C51.9127 14.897 52.2642 15.0402 52.7331 15.0602C53.2446 15.0821 53.6664 14.9561 53.9984 14.682L54.3632 15.5144ZM57.8979 9.83637C58.2714 9.33519 58.7429 8.99531 59.3123 8.81674C59.8922 8.64029 60.5637 8.62931 61.3269 8.7838L61.1078 9.86586L60.8444 9.79621C59.9767 9.62054 59.2432 9.74957 58.6439 10.1833C58.0446 10.617 57.6476 11.3148 57.4529 12.2766L56.6021 16.4793L55.4887 16.2539L57.1585 8.00526L58.2249 8.22114L57.8979 9.83637ZM70.7496 12.8286L67.3667 20.5348L66.3704 20.0975L67.0393 18.5738C66.4995 18.9543 65.9108 19.1676 65.2731 19.2139C64.6451 19.2644 64.0088 19.1481 63.3642 18.8652C62.6415 18.5479 62.06 18.0946 61.6197 17.5052C61.1795 16.9159 60.9241 16.2505 60.8535 15.5089C60.783 14.7673 60.915 14.0156 61.2494 13.2538C61.5838 12.492 62.0478 11.8861 62.6415 11.4361C63.2351 10.986 63.8956 10.7285 64.6232 10.6635C65.355 10.5886 66.0822 10.7099 66.805 11.0271C67.4301 11.3015 67.9338 11.6799 68.3162 12.1623C68.7126 12.6392 68.9626 13.1975 69.0662 13.8371L69.7094 12.372L70.7496 12.8286ZM63.8573 17.9808C64.3945 18.2166 64.9315 18.3067 65.4685 18.2512C66.0195 18.1902 66.5178 17.9838 66.9635 17.6319C67.419 17.2843 67.7753 16.8176 68.0326 16.2315C68.2898 15.6455 68.3922 15.0672 68.3398 14.4967C68.2972 13.9305 68.1097 13.4288 67.7773 12.9917C67.4591 12.5491 67.0313 12.2099 66.4942 11.9741C65.9472 11.734 65.3982 11.6444 64.8472 11.7054C64.3103 11.7609 63.8141 11.9625 63.3586 12.3101C62.913 12.6619 62.5615 13.1309 62.3042 13.7169C62.047 14.3029 61.9397 14.879 61.9823 15.4453C62.0348 16.0158 62.2201 16.5223 62.5384 16.9649C62.8707 17.4021 63.3103 17.7407 63.8573 17.9808Z" fill="#8567FD"/>
<path d="M35.7851 8.19016L35.5031 9.14956V9.14956L35.7851 8.19016ZM38.0505 13.3465L38.9445 13.7946L38.948 13.7877L38.0505 13.3465ZM32.6259 16.8308L32.2236 15.9152L31.3081 16.3175L31.7104 17.233L32.6259 16.8308ZM34.0482 20.0681L34.4504 20.9836L35.366 20.5814L34.9637 19.6659L34.0482 20.0681ZM32.9642 20.5444L32.0487 20.9466L32.4509 21.8621L33.3665 21.4599L32.9642 20.5444ZM28.4591 10.2904L28.0569 9.37484L27.1413 9.77708L27.5436 10.6926L28.4591 10.2904ZM34.9322 14.6816L34.5299 13.766L34.9322 14.6816ZM36.9717 12.9991L37.8628 13.453L37.8676 13.4433L36.9717 12.9991ZM36.9471 10.7554L36.0316 11.1577L36.9471 10.7554ZM35.3048 9.2051L35.026 10.1655L35.0364 10.1684L35.3048 9.2051ZM29.955 10.7516L29.5528 9.8361L28.6372 10.2383L29.0395 11.1539L29.955 10.7516ZM32.2076 15.8786L31.292 16.2809L31.6943 17.1964L32.6098 16.7942L32.2076 15.8786ZM32.297 8.60418L32.6993 9.51972C33.8676 9.00642 34.7806 8.93717 35.5031 9.14956L35.7851 8.19016L36.0672 7.23076C34.756 6.84531 33.3437 7.05208 31.8948 7.68865L32.297 8.60418ZM35.7851 8.19016L35.5031 9.14956C36.1988 9.35409 36.7368 9.81916 37.1156 10.6814L38.0311 10.2792L38.9467 9.87694C38.3644 8.55169 37.405 7.62408 36.0672 7.23076L35.7851 8.19016ZM38.0311 10.2792L37.1156 10.6814C37.4944 11.5437 37.4731 12.2545 37.1531 12.9052L38.0505 13.3465L38.948 13.7877C39.5632 12.5362 39.5289 11.2022 38.9467 9.87694L38.0311 10.2792ZM38.0505 13.3465L37.1566 12.8983C36.8212 13.5674 36.149 14.1906 34.9776 14.7053L35.3798 15.6208L35.7821 16.5364C37.2278 15.9012 38.3361 15.0082 38.9445 13.7946L38.0505 13.3465ZM35.3798 15.6208L34.9776 14.7053L32.2236 15.9152L32.6259 16.8308L33.0281 17.7463L35.7821 16.5364L35.3798 15.6208ZM32.6259 16.8308L31.7104 17.233L33.1327 20.4703L34.0482 20.0681L34.9637 19.6659L33.5414 16.4285L32.6259 16.8308ZM34.0482 20.0681L33.646 19.1526L32.562 19.6288L32.9642 20.5444L33.3665 21.4599L34.4504 20.9836L34.0482 20.0681ZM32.9642 20.5444L33.8797 20.1421L29.3747 9.88814L28.4591 10.2904L27.5436 10.6926L32.0487 20.9466L32.9642 20.5444ZM28.4591 10.2904L28.8614 11.2059L32.6993 9.51972L32.297 8.60418L31.8948 7.68865L28.0569 9.37484L28.4591 10.2904ZM34.9322 14.6816L35.3344 15.5971C36.4664 15.0998 37.3749 14.4107 37.8628 13.4529L36.9717 12.9991L36.0806 12.5452C35.8804 12.9384 35.4292 13.3709 34.5299 13.766L34.9322 14.6816ZM36.9717 12.9991L37.8676 13.4433C38.3604 12.4494 38.317 11.3872 37.8627 10.3532L36.9471 10.7554L36.0316 11.1577C36.2895 11.7447 36.2625 12.1783 36.0758 12.5548L36.9717 12.9991ZM36.9471 10.7554L37.8627 10.3532C37.4035 9.30818 36.6498 8.54178 35.5732 8.2418L35.3048 9.2051L35.0364 10.1684C35.4202 10.2754 35.7613 10.5425 36.0316 11.1577L36.9471 10.7554ZM35.3048 9.2051L35.5836 8.24475C34.5415 7.9422 33.4133 8.13995 32.2774 8.63903L32.6796 9.55456L33.0819 10.4701C33.9772 10.0767 34.5991 10.0415 35.026 10.1654L35.3048 9.2051ZM32.6796 9.55456L32.2774 8.63903L29.5528 9.8361L29.955 10.7516L30.3572 11.6672L33.0819 10.4701L32.6796 9.55456ZM29.955 10.7516L29.0395 11.1539L31.292 16.2809L32.2076 15.8786L33.1231 15.4764L30.8705 10.3494L29.955 10.7516ZM32.2076 15.8786L32.6098 16.7942L35.3344 15.5971L34.9322 14.6816L34.5299 13.766L31.8053 14.9631L32.2076 15.8786ZM46.5442 14.9867L47.0612 15.8427L47.0713 15.8365L46.5442 14.9867ZM47.5428 13.994L48.1906 13.2322L47.306 12.4799L46.6933 13.4663L47.5428 13.994ZM48.2858 14.6258L49.1412 15.1437L49.5821 14.4155L48.9336 13.864L48.2858 14.6258ZM47.0628 15.8467L47.586 16.699V16.699L47.0628 15.8467ZM42.9368 16.2775L42.5875 17.2146L42.599 17.2187L42.9368 16.2775ZM41.1564 14.9936L40.3734 15.6156L41.1564 14.9936ZM40.2721 12.8944L39.2834 13.0441L40.2721 12.8944ZM40.4635 10.6322L39.5269 10.2816L39.5226 10.2935L40.4635 10.6322ZM45.8154 8.25189L45.4549 9.18467L45.462 9.18735L45.8154 8.25189ZM47.4524 9.44419L46.6717 10.0692L46.68 10.0793L47.4524 9.44419ZM48.3334 11.4145L48.6691 12.3564L49.4675 12.0719L49.3176 11.2377L48.3334 11.4145ZM41.7006 13.7784L41.3649 12.8365L40.3123 13.2116L40.8016 14.2163L41.7006 13.7784ZM43.0816 15.2037L42.6304 16.0961L42.6401 16.101L42.6499 16.1057L43.0816 15.2037ZM43.8916 9.01256L43.7419 8.02384L43.8916 9.01256ZM42.3878 9.66108L43.0142 10.4406L43.0197 10.4361L42.3878 9.66108ZM41.4822 10.9472L40.5419 10.6066L40.5393 10.6141L41.4822 10.9472ZM41.4202 12.9956L40.4626 13.2837L40.7654 14.2902L41.7556 13.9377L41.4202 12.9956ZM47.1168 10.9676L47.4521 11.9097L48.3831 11.5783L48.0627 10.6434L47.1168 10.9676ZM45.893 9.40527L45.3534 10.2473L45.3632 10.2534L45.893 9.40527ZM45.1611 15.4713L45.3109 16.46C45.9441 16.3641 46.5323 16.1622 47.0612 15.8427L46.5442 14.9867L46.0271 14.1307C45.7456 14.3008 45.4118 14.4219 45.0114 14.4826L45.1611 15.4713ZM46.5442 14.9867L47.0713 15.8365C47.6132 15.5003 48.0576 15.0603 48.3922 14.5216L47.5428 13.994L46.6933 13.4663C46.5249 13.7374 46.3035 13.9592 46.017 14.1369L46.5442 14.9867ZM47.5428 13.994L46.8949 14.7557L47.6379 15.3876L48.2858 14.6258L48.9336 13.864L48.1906 13.2322L47.5428 13.994ZM48.2858 14.6258L47.4303 14.1079C47.2136 14.4659 46.9217 14.76 46.5396 14.9945L47.0628 15.8467L47.586 16.699C48.2304 16.3033 48.7539 15.7835 49.1412 15.1437L48.2858 14.6258ZM47.0628 15.8467L46.5396 14.9945C46.153 15.2319 45.6939 15.3987 45.1465 15.4816L45.2963 16.4703L45.446 17.459C46.2275 17.3407 46.9461 17.0918 47.586 16.699L47.0628 15.8467ZM45.2963 16.4703L45.1465 15.4816C44.4344 15.5894 43.8177 15.5312 43.2746 15.3363L42.9368 16.2775L42.599 17.2187C43.4933 17.5397 44.4497 17.6099 45.446 17.459L45.2963 16.4703ZM42.9368 16.2775L43.286 15.3404C42.7319 15.1339 42.2899 14.8129 41.9395 14.3717L41.1564 14.9936L40.3734 15.6156C40.9561 16.3492 41.7011 16.8841 42.5875 17.2145L42.9368 16.2775ZM41.1564 14.9936L41.9395 14.3717C41.5917 13.9337 41.3602 13.4009 41.2608 12.7446L40.2721 12.8944L39.2834 13.0441C39.43 14.012 39.7881 14.8787 40.3734 15.6156L41.1564 14.9936ZM40.2721 12.8944L41.2608 12.7446C41.1599 12.0784 41.2161 11.494 41.4044 10.9709L40.4635 10.6322L39.5226 10.2935C39.2097 11.1625 39.1383 12.0862 39.2834 13.0441L40.2721 12.8944ZM40.4635 10.6322L41.4 10.9828C41.5994 10.45 41.9078 10.0254 42.3305 9.68839L41.7071 8.90651L41.0837 8.12462C40.3705 8.69323 39.8498 9.41909 39.527 10.2816L40.4635 10.6322ZM41.7071 8.90651L42.3305 9.68839C42.7478 9.35567 43.2595 9.13258 43.8952 9.03629L43.7454 8.04757L43.5957 7.05884C42.6495 7.20216 41.8022 7.5517 41.0837 8.12462L41.7071 8.90651ZM43.7454 8.04757L43.8952 9.03629C44.4765 8.94824 44.9892 9.00464 45.4549 9.18464L45.8154 8.25189L46.1759 7.31914C45.3582 7.00307 44.4909 6.92326 43.5957 7.05884L43.7454 8.04757ZM45.8154 8.25189L45.462 9.18735C45.9452 9.36994 46.3438 9.65953 46.6718 10.0692L47.4524 9.44419L48.233 8.8192C47.6828 8.13198 46.9901 7.62671 46.1688 7.31643L45.8154 8.25189ZM47.4524 9.44419L46.68 10.0793C47.0103 10.481 47.2386 10.9756 47.3491 11.5912L48.3334 11.4145L49.3176 11.2377C49.1528 10.3199 48.7937 9.50099 48.2248 8.80907L47.4524 9.44419ZM48.3334 11.4145L47.9977 10.4725L41.3649 12.8365L41.7006 13.7784L42.0363 14.7204L48.6691 12.3564L48.3334 11.4145ZM41.7006 13.7784L40.8016 14.2163C41.2052 15.045 41.8177 15.6852 42.6304 16.0961L43.0816 15.2037L43.5328 14.3113C43.1305 14.1079 42.8224 13.7979 42.5997 13.3406L41.7006 13.7784ZM43.0816 15.2037L42.6499 16.1057C43.4715 16.4989 44.3714 16.6023 45.3109 16.46L45.1611 15.4713L45.0114 14.4826C44.4111 14.5735 43.9246 14.4985 43.5133 14.3016L43.0816 15.2037ZM43.8916 9.01256L43.7419 8.02384C42.9988 8.13638 42.3276 8.41987 41.7558 8.88605L42.3878 9.66108L43.0197 10.4361C43.2929 10.2133 43.6243 10.0645 44.0414 10.0013L43.8916 9.01256ZM42.3878 9.66108L41.7613 8.88159C41.1973 9.33488 40.7911 9.91874 40.5419 10.6067L41.4822 10.9472L42.4224 11.2878C42.5536 10.9255 42.7511 10.652 43.0142 10.4406L42.3878 9.66108ZM41.4822 10.9472L40.5393 10.6141C40.2953 11.3044 40.248 12.0408 40.363 12.7997L41.3517 12.6499L42.3404 12.5002C42.2669 12.0146 42.3065 11.6158 42.425 11.2803L41.4822 10.9472ZM41.3517 12.6499L40.363 12.7997C40.388 12.9649 40.4192 13.1393 40.4626 13.2837L41.4202 12.9956L42.3778 12.7075C42.3798 12.7142 42.3759 12.7018 42.3677 12.6605C42.36 12.622 42.3509 12.5693 42.3404 12.5002L41.3517 12.6499ZM41.4202 12.9956L41.7556 13.9377L47.4521 11.9097L47.1168 10.9676L46.7814 10.0255L41.0848 12.0535L41.4202 12.9956ZM47.1168 10.9676L48.0627 10.6434C47.7595 9.75854 47.2096 9.04856 46.4227 8.55712L45.893 9.40527L45.3632 10.2534C45.7441 10.4913 46.0101 10.8229 46.1708 11.2918L47.1168 10.9676ZM45.893 9.40527L46.4326 8.56335C45.6239 8.04507 44.7075 7.87757 43.7419 8.02384L43.8916 9.01256L44.0414 10.0013C44.5733 9.92072 44.9911 10.015 45.3534 10.2472L45.893 9.40527ZM54.3632 15.5144L54.9997 16.2856L55.5822 15.8048L55.2791 15.113L54.3632 15.5144ZM53.5607 15.9284L53.816 16.8953L53.8311 16.8913L53.846 16.8869L53.5607 15.9284ZM50.7845 15.3131L50.0478 15.9894V15.9894L50.7845 15.3131ZM50.5598 5.59864L50.6025 4.59955L49.6034 4.55678L49.5607 5.55587L50.5598 5.59864ZM51.6947 5.64722L52.6938 5.68999L52.7366 4.6909L51.7375 4.64813L51.6947 5.64722ZM51.616 7.48554L50.6169 7.44277L50.5742 8.44185L51.5733 8.48462L51.616 7.48554ZM54.1577 7.59434L55.1568 7.6371L55.1995 6.63802L54.2005 6.59525L54.1577 7.59434ZM54.1166 8.55346L54.0739 9.55254L55.073 9.59531L55.1157 8.59622L54.1166 8.55346ZM51.575 8.44466L51.6177 7.44557L50.6186 7.40281L50.5759 8.40189L51.575 8.44466ZM51.6785 14.6307L50.9143 15.2757L50.9209 15.2835L50.9276 15.2911L51.6785 14.6307ZM53.9984 14.682L54.9144 14.2807L54.383 13.068L53.3619 13.9108L53.9984 14.682ZM54.3632 15.5144L53.7266 14.7431C53.6221 14.8294 53.4785 14.9095 53.2755 14.97L53.5607 15.9284L53.846 16.8869C54.2702 16.7606 54.6615 16.5647 54.9997 16.2856L54.3632 15.5144ZM53.5607 15.9284L53.3054 14.9616C53.0946 15.0172 52.8683 15.042 52.6222 15.0315L52.5795 16.0306L52.5367 17.0296C52.9727 17.0483 53.4006 17.005 53.816 16.8953L53.5607 15.9284ZM52.5795 16.0306L52.6222 15.0315C52.0137 15.0054 51.6996 14.8313 51.5212 14.6369L50.7845 15.3131L50.0478 15.9894C50.6855 16.6841 51.568 16.9882 52.5367 17.0296L52.5795 16.0306ZM50.7845 15.3131L51.5212 14.6369C51.3405 14.44 51.1961 14.1156 51.2215 13.5222L50.2224 13.4794L49.2233 13.4367C49.1821 14.3992 49.4125 15.2972 50.0478 15.9894L50.7845 15.3131ZM50.2224 13.4794L51.2215 13.5222L51.5588 5.6414L50.5598 5.59864L49.5607 5.55587L49.2233 13.4367L50.2224 13.4794ZM50.5598 5.59864L50.517 6.59772L51.6519 6.6463L51.6947 5.64722L51.7375 4.64813L50.6025 4.59955L50.5598 5.59864ZM51.6947 5.64722L50.6956 5.60445L50.6169 7.44277L51.616 7.48554L52.6151 7.5283L52.6938 5.68999L51.6947 5.64722ZM51.616 7.48554L51.5733 8.48462L54.1149 8.59342L54.1577 7.59434L54.2005 6.59525L51.6588 6.48645L51.616 7.48554ZM54.1577 7.59434L53.1586 7.55157L53.1176 8.51069L54.1166 8.55346L55.1157 8.59622L55.1568 7.6371L54.1577 7.59434ZM54.1166 8.55346L54.1594 7.55437L51.6177 7.44557L51.575 8.44466L51.5322 9.44374L54.0739 9.55254L54.1166 8.55346ZM51.575 8.44466L50.5759 8.40189L50.361 13.4213L51.3601 13.4641L52.3592 13.5068L52.5741 8.48742L51.575 8.44466ZM51.3601 13.4641L50.361 13.4213C50.333 14.076 50.4656 14.7441 50.9143 15.2757L51.6785 14.6307L52.4427 13.9858C52.4239 13.9635 52.3443 13.8539 52.3592 13.5068L51.3601 13.4641ZM51.6785 14.6307L50.9276 15.2911C51.3946 15.8222 52.041 16.0315 52.6903 16.0593L52.7331 15.0602L52.7759 14.0612C52.4874 14.0488 52.4307 13.9718 52.4294 13.9704L51.6785 14.6307ZM52.7331 15.0602L52.6903 16.0593C53.3993 16.0897 54.0775 15.9134 54.635 15.4532L53.9984 14.682L53.3619 13.9108C53.2553 13.9987 53.0899 14.0746 52.7759 14.0612L52.7331 15.0602ZM53.9984 14.682L53.0825 15.0834L53.4472 15.9157L54.3632 15.5144L55.2791 15.113L54.9144 14.2807L53.9984 14.682ZM57.8979 9.83637L56.9178 9.63796L58.6997 10.434L57.8979 9.83637ZM59.3123 8.81674L59.0212 7.86002L59.0131 7.86256L59.3123 8.81674ZM61.3269 8.7838L62.307 8.98222L62.5054 8.0021L61.5253 7.80369L61.3269 8.7838ZM61.1078 9.86586L60.8522 10.8326L61.8775 11.1037L62.088 10.0643L61.1078 9.86586ZM60.8444 9.79621L61.1001 8.82943L61.0716 8.82192L61.0428 8.81609L60.8444 9.79621ZM58.6439 10.1833L59.2302 10.9934V10.9934L58.6439 10.1833ZM56.6021 16.4793L56.4037 17.4595L57.3838 17.6579L57.5822 16.6778L56.6021 16.4793ZM55.4887 16.2539L54.5085 16.0555L54.3101 17.0356L55.2902 17.2341L55.4887 16.2539ZM57.1585 8.00526L57.3569 7.02514L56.3768 6.82673L56.1784 7.80685L57.1585 8.00526ZM58.2249 8.22114L59.205 8.41955L59.4034 7.43943L58.4233 7.24102L58.2249 8.22114ZM57.8979 9.83637L58.6997 10.434C58.9538 10.093 59.2529 9.88338 59.6115 9.77092L59.3123 8.81674L59.0131 7.86256C58.2329 8.10724 57.5891 8.57733 57.0961 9.23878L57.8979 9.83637ZM59.3123 8.81674L59.6034 9.77343C59.9858 9.65708 60.4828 9.63322 61.1285 9.76392L61.3269 8.7838L61.5253 7.80369C60.6446 7.6254 59.7986 7.62349 59.0212 7.86005L59.3123 8.81674ZM61.3269 8.7838L60.3468 8.58539L60.1277 9.66744L61.1078 9.86586L62.088 10.0643L62.307 8.98222L61.3269 8.7838ZM61.1078 9.86586L61.3635 8.89908L61.1001 8.82943L60.8444 9.79621L60.5888 10.763L60.8522 10.8326L61.1078 9.86586ZM60.8444 9.79621L61.0428 8.81609C59.9598 8.59683 58.9274 8.74368 58.0576 9.37317L58.6439 10.1833L59.2302 10.9934C59.5589 10.7555 59.9936 10.6443 60.646 10.7763L60.8444 9.79621ZM58.6439 10.1833L58.0576 9.37317C57.1959 9.99681 56.7006 10.9524 56.4727 12.0782L57.4529 12.2766L58.433 12.475C58.5945 11.6771 58.8933 11.2372 59.2302 10.9934L58.6439 10.1833ZM57.4529 12.2766L56.4727 12.0782L55.6219 16.2809L56.6021 16.4793L57.5822 16.6778L58.433 12.475L57.4529 12.2766ZM56.6021 16.4793L56.8005 15.4992L55.6871 15.2738L55.4887 16.2539L55.2902 17.2341L56.4037 17.4595L56.6021 16.4793ZM55.4887 16.2539L56.4688 16.4524L58.1386 8.20368L57.1585 8.00526L56.1784 7.80685L54.5085 16.0555L55.4887 16.2539ZM57.1585 8.00526L56.9601 8.98538L58.0265 9.20125L58.2249 8.22114L58.4233 7.24102L57.3569 7.02514L57.1585 8.00526ZM58.2249 8.22114L57.2447 8.02272L56.9178 9.63796L57.8979 9.83637L58.878 10.0348L59.205 8.41955L58.2249 8.22114ZM70.7496 12.8286L71.6652 13.2306L72.0672 12.3149L71.1515 11.913L70.7496 12.8286ZM67.3667 20.5348L66.9647 21.4505L67.8804 21.8524L68.2823 20.9368L67.3667 20.5348ZM66.3704 20.0975L65.4548 19.6955L65.0528 20.6112L65.9685 21.0131L66.3704 20.0975ZM67.0393 18.5738L67.955 18.9758L69.3984 15.6877L66.4632 17.7564L67.0393 18.5738ZM65.2731 19.2139L65.2007 18.2164L65.1929 18.2171L65.2731 19.2139ZM61.6197 17.5052L62.4209 16.9068L61.6197 17.5052ZM60.8535 15.5089L61.8491 15.4142L60.8535 15.5089ZM61.2494 13.2538L60.3337 12.8519L61.2494 13.2538ZM62.6415 11.4361L63.2456 12.233L62.6415 11.4361ZM64.6232 10.6635L64.7122 11.6596L64.7249 11.6583L64.6232 10.6635ZM68.3162 12.1623L67.5325 12.7835L67.5397 12.7926L67.5471 12.8015L68.3162 12.1623ZM69.0662 13.8371L68.0791 13.997L68.6208 17.3396L69.9819 14.239L69.0662 13.8371ZM69.7094 12.372L70.1113 11.4564L69.1957 11.0544L68.7937 11.9701L69.7094 12.372ZM65.4685 18.2512L65.5713 19.2459L65.5785 19.2451L65.4685 18.2512ZM66.9635 17.6319L66.3568 16.837L66.3503 16.8419L66.3439 16.847L66.9635 17.6319ZM68.3398 14.4967L67.3426 14.5718L67.3433 14.58L67.344 14.5882L68.3398 14.4967ZM67.7773 12.9917L66.9655 13.5755L66.9732 13.5863L66.9813 13.5969L67.7773 12.9917ZM66.4942 11.9741L66.0922 12.8897L66.4942 11.9741ZM64.8472 11.7054L64.9501 12.7001L64.9573 12.6993L64.8472 11.7054ZM63.3586 12.3101L62.752 11.5151L62.7455 11.5201L62.739 11.5252L63.3586 12.3101ZM62.3042 13.7169L61.3886 13.3149L62.3042 13.7169ZM61.9823 15.4453L60.9852 15.5204L60.9858 15.5286L60.9865 15.5368L61.9823 15.4453ZM62.5384 16.9649L61.7265 17.5488L61.7343 17.5596L61.7423 17.5702L62.5384 16.9649ZM70.7496 12.8286L69.8339 12.4267L66.451 20.1329L67.3667 20.5348L68.2823 20.9368L71.6652 13.2306L70.7496 12.8286ZM67.3667 20.5348L67.7686 19.6192L66.7724 19.1818L66.3704 20.0975L65.9685 21.0131L66.9647 21.4505L67.3667 20.5348ZM66.3704 20.0975L67.2861 20.4994L67.955 18.9758L67.0393 18.5738L66.1236 18.1719L65.4548 19.6955L66.3704 20.0975ZM67.0393 18.5738L66.4632 17.7564C66.0668 18.0359 65.6511 18.1838 65.2007 18.2165L65.2731 19.2139L65.3454 20.2112C66.1704 20.1514 66.9323 19.8727 67.6154 19.3912L67.0393 18.5738ZM65.2731 19.2139L65.1929 18.2171C64.7485 18.2528 64.2774 18.1739 63.7662 17.9495L63.3642 18.8652L62.9623 19.7808C63.7403 20.1224 64.5417 20.2759 65.3533 20.2106L65.2731 19.2139ZM63.3642 18.8652L63.7662 17.9495C63.1897 17.6965 62.7502 17.3476 62.4209 16.9068L61.6197 17.5052L60.8186 18.1037C61.3698 18.8416 62.0932 19.3993 62.9623 19.7808L63.3642 18.8652ZM61.6197 17.5052L62.4209 16.9068C62.0918 16.4663 61.9025 15.9756 61.8491 15.4142L60.8535 15.5089L59.858 15.6036C59.9457 16.5253 60.2671 17.3655 60.8186 18.1037L61.6197 17.5052ZM60.8535 15.5089L61.8491 15.4142C61.7965 14.8614 61.8909 14.2802 62.165 13.6558L61.2494 13.2538L60.3337 12.8519C59.939 13.7511 59.7695 14.6732 59.858 15.6036L60.8535 15.5089ZM61.2494 13.2538L62.165 13.6558C62.4391 13.0314 62.8031 12.5684 63.2456 12.233L62.6415 11.4361L62.0374 10.6392C61.2926 11.2037 60.7285 11.9526 60.3337 12.8519L61.2494 13.2538ZM62.6415 11.4361L63.2456 12.233C63.6927 11.894 64.1756 11.7075 64.7122 11.6595L64.6232 10.6635L64.5341 9.66743C63.6157 9.74956 62.7774 10.0781 62.0374 10.6392L62.6415 11.4361ZM64.6232 10.6635L64.7249 11.6583C65.2722 11.6023 65.8266 11.6897 66.403 11.9428L66.805 11.0271L67.207 10.1115C66.3379 9.72998 65.4377 9.57496 64.5214 9.66864L64.6232 10.6635ZM66.805 11.0271L66.403 11.9428C66.8954 12.1589 67.2621 12.4424 67.5325 12.7835L68.3162 12.1623L69.0998 11.5411C68.6055 10.9175 67.9648 10.4442 67.207 10.1115L66.805 11.0271ZM68.3162 12.1623L67.5471 12.8015C67.8241 13.1347 68.0027 13.5255 68.0791 13.997L69.0662 13.8371L70.0534 13.6771C69.9225 12.8694 69.601 12.1437 69.0852 11.5231L68.3162 12.1623ZM69.0662 13.8371L69.9819 14.239L70.625 12.774L69.7094 12.372L68.7937 11.9701L68.1506 13.4351L69.0662 13.8371ZM69.7094 12.372L69.3074 13.2877L70.3476 13.7443L70.7496 12.8286L71.1515 11.913L70.1113 11.4564L69.7094 12.372ZM63.8573 17.9808L63.4553 18.8964C64.1369 19.1956 64.8474 19.3208 65.5713 19.2459L65.4685 18.2512L65.3656 17.2565C65.0157 17.2927 64.652 17.2375 64.2593 17.0651L63.8573 17.9808ZM65.4685 18.2512L65.5785 19.2451C66.3203 19.163 66.9943 18.8817 67.5832 18.4168L66.9635 17.6319L66.3439 16.847C66.0414 17.0859 65.7186 17.2174 65.3584 17.2573L65.4685 18.2512ZM66.9635 17.6319L67.5702 18.4269C68.1754 17.965 68.631 17.3561 68.9482 16.6335L68.0326 16.2315L67.1169 15.8296C66.9196 16.279 66.6625 16.6037 66.3568 16.837L66.9635 17.6319ZM68.0326 16.2315L68.9482 16.6335C69.2654 15.9109 69.4053 15.1634 69.3356 14.4052L68.3398 14.4967L67.344 14.5882C67.3792 14.9711 67.3142 15.3801 67.1169 15.8296L68.0326 16.2315ZM68.3398 14.4967L69.337 14.4216C69.2804 13.6699 69.0266 12.9826 68.5734 12.3865L67.7773 12.9917L66.9813 13.5969C67.1927 13.875 67.314 14.1911 67.3426 14.5718L68.3398 14.4967ZM67.7773 12.9917L68.5892 12.4079C68.1585 11.8089 67.5842 11.3605 66.8961 11.0584L66.4942 11.9741L66.0922 12.8897C66.4784 13.0593 66.7596 13.2893 66.9655 13.5755L67.7773 12.9917ZM66.4942 11.9741L66.8961 11.0584C66.2012 10.7534 65.4762 10.6297 64.7372 10.7115L64.8472 11.7054L64.9573 12.6993C65.3202 12.6592 65.6932 12.7146 66.0922 12.8897L66.4942 11.9741ZM64.8472 11.7054L64.7444 10.7107C64.013 10.7863 63.3444 11.063 62.752 11.5151L63.3586 12.3101L63.9653 13.105C64.2838 12.862 64.6077 12.7355 64.9501 12.7001L64.8472 11.7054ZM63.3586 12.3101L62.739 11.5252C62.1492 11.9908 61.7032 12.5982 61.3886 13.3149L62.3042 13.7169L63.2199 14.1188C63.4198 13.6635 63.6767 13.333 63.9783 13.0949L63.3586 12.3101ZM62.3042 13.7169L61.3886 13.3149C61.074 14.0316 60.9287 14.771 60.9852 15.5204L61.9823 15.4453L62.9795 15.3701C62.9506 14.987 63.02 14.5742 63.2199 14.1188L62.3042 13.7169ZM61.9823 15.4453L60.9865 15.5368C61.0544 16.2754 61.2987 16.9539 61.7265 17.5488L62.5384 16.9649L63.3503 16.3811C63.1415 16.0908 63.0151 15.7561 62.9781 15.3538L61.9823 15.4453ZM62.5384 16.9649L61.7423 17.5702C62.1864 18.1543 62.7668 18.5942 63.4553 18.8964L63.8573 17.9808L64.2593 17.0651C63.8539 16.8872 63.555 16.6499 63.3344 16.3597L62.5384 16.9649Z" fill="#8567FD" mask="url(#path-4-inside-2_478_21525)"/>
<path d="M17.5547 73.5998C14.5653 69.3606 12.4403 64.5741 11.3008 59.5136C10.1613 54.4531 10.0297 49.2177 10.9135 44.1063C11.7973 38.995 13.6792 34.1077 16.4518 29.7237C19.2243 25.3396 22.8333 21.5445 27.0725 18.5552" stroke="#8567FD"/>
<path d="M83.1173 74.5998C86.1067 70.3606 88.2317 65.5741 89.3712 60.5136C90.5107 55.4531 90.6423 50.2177 89.7585 45.1063C88.8747 39.995 86.9928 35.1077 84.2202 30.7237C81.4477 26.3396 77.8387 22.5445 73.5995 19.5552" stroke="#8567FD"/>
</svg>
